<svg width="539" height="350" viewBox="0 0 539 350" fill="none" xmlns="http://www.w3.org/2000/svg">
<g clip-path="url(#clip0_170_104)">
<path d="M313.967 61.7009C324.068 61.7009 332.258 54.3895 332.258 45.3704C332.258 36.3513 324.068 29.0399 313.967 29.0399C303.865 29.0399 295.676 36.3513 295.676 45.3704C295.676 54.3895 303.865 61.7009 313.967 61.7009Z" fill="#9BD1F8"/>
<path d="M455.856 304.064C483.043 285.576 496.028 254.508 487.899 224.871C487.697 224.135 487.484 223.4 487.259 222.667C481.87 205.075 468.536 188.355 449.103 182.734C432.786 178.014 414.975 181.644 397.952 179.767C364.535 176.083 338.627 151.942 320.398 126.667C302.169 101.392 288.159 73.1002 263.936 52.2192C224.009 17.8005 158.878 10.3901 109.374 32.7941C59.8699 55.1982 28.3364 104.903 29.6812 154.441C31.0261 203.979 63.9647 251.34 111.8 276.468C129.373 285.699 149.697 292.239 169.924 289.95C187.475 287.965 203.422 279.545 220.89 277.046C248.354 273.116 275.643 284.202 299.397 297.121C323.151 310.04 346.096 325.353 373.089 331.342C399.3 337.158 431.772 320.442 455.856 304.064Z" fill="#063658"/>
<path d="M416.794 33.8344C416.198 33.4796 415.595 33.1432 414.999 32.8007C397.771 22.9634 379.305 14.9717 359.984 8.99064L355.504 64.1703H327.102V0.935705C325.314 0.605435 323.512 0.293513 321.711 -6.10352e-05V64.1703H287.959C269.378 64.1703 251.559 57.5803 238.42 45.85C225.281 34.1197 217.9 18.21 217.9 1.62078V1.62073C216.092 1.96935 214.297 2.34243 212.502 2.73998V64.1703H185.012L180.744 11.5533C160.888 18.3522 142.037 27.293 124.612 38.1768C124.311 38.3603 124.009 38.5499 123.715 38.7334C122.201 39.6814 120.707 40.6477 119.221 41.6263V252.137H200.24L198.808 234.431L190.93 137.215H349.578L341.7 234.431L340.268 252.137H420.39V35.9628C419.198 35.2411 417.999 34.5316 416.794 33.8344ZM212.502 121.16H189.629L185.402 68.9898H212.502V121.16ZM321.711 121.16H283.294V120.127C283.294 119.63 283.184 119.138 282.971 118.679C282.758 118.22 282.445 117.803 282.052 117.452C281.658 117.101 281.19 116.823 280.676 116.633C280.161 116.443 279.61 116.346 279.054 116.347H262.352C261.796 116.347 261.246 116.444 260.732 116.634C260.218 116.824 259.751 117.103 259.358 117.454C258.965 117.805 258.653 118.221 258.441 118.68C258.228 119.139 258.119 119.63 258.119 120.127V121.16H217.9V68.9898H321.711V121.16ZM327.102 121.16V68.9898H355.113L350.886 121.16H327.102Z" fill="#9BD1F8"/>
<path d="M-3.05176e-05 265.618C5.95105 271.913 12.3878 277.83 19.2632 283.324L519.737 283.935C526.612 278.441 533.049 272.525 539 266.229L-3.05176e-05 265.618Z" fill="#9BD1F8"/>
<path d="M339.387 208.922V261.339C339.388 262.007 339.685 262.648 340.214 263.12C340.743 263.592 341.461 263.858 342.209 263.858H429.212C429.96 263.858 430.677 263.592 431.206 263.12C431.735 262.648 432.033 262.007 432.033 261.339V208.922C432.032 208.254 431.734 207.615 431.205 207.143C430.676 206.671 429.959 206.406 429.212 206.405H342.209C341.461 206.406 340.745 206.671 340.216 207.143C339.687 207.615 339.389 208.254 339.387 208.922Z" fill="#3F3D56"/>
<path d="M341.428 209.574V260.693C341.429 261.049 341.588 261.392 341.871 261.644C342.153 261.896 342.537 262.038 342.936 262.039H428.487C428.887 262.038 429.27 261.896 429.553 261.644C429.836 261.392 429.995 261.049 429.995 260.693V209.574C429.995 209.216 429.837 208.874 429.554 208.621C429.271 208.368 428.888 208.225 428.487 208.224H342.936C342.536 208.225 342.153 208.368 341.87 208.621C341.587 208.874 341.428 209.216 341.428 209.574Z" fill="#6C63FF"/>
<path d="M337.568 271.562C337.727 271.74 337.93 271.884 338.16 271.983C338.391 272.081 338.643 272.132 338.899 272.131H432.058C432.313 272.13 432.565 272.079 432.795 271.981C433.025 271.883 433.227 271.741 433.388 271.564C433.548 271.388 433.663 271.181 433.722 270.96C433.782 270.739 433.786 270.509 433.734 270.286L432.288 264.153C432.228 263.903 432.099 263.671 431.913 263.476C431.726 263.282 431.488 263.133 431.221 263.042C431.027 262.974 430.82 262.939 430.612 262.939H340.339C340.131 262.939 339.925 262.974 339.731 263.042C339.463 263.133 339.226 263.282 339.039 263.476C338.853 263.671 338.724 263.903 338.664 264.153L337.218 270.286C337.166 270.509 337.171 270.739 337.231 270.959C337.292 271.18 337.407 271.386 337.568 271.562Z" fill="#2F2E41"/>
<path d="M427.416 265.581H429.616C429.801 265.581 429.951 265.447 429.951 265.282V264.342C429.951 264.177 429.801 264.044 429.616 264.044H427.416C427.231 264.044 427.081 264.177 427.081 264.342V265.282C427.081 265.447 427.231 265.581 427.416 265.581Z" fill="#3F3D56"/>
<path d="M421.677 265.581H423.878C424.062 265.581 424.212 265.447 424.212 265.282V264.342C424.212 264.177 424.062 264.044 423.878 264.044H421.677C421.493 264.044 421.343 264.177 421.343 264.342V265.282C421.343 265.447 421.493 265.581 421.677 265.581Z" fill="#3F3D56"/>
<path d="M415.939 265.581H418.139C418.324 265.581 418.474 265.447 418.474 265.282V264.342C418.474 264.177 418.324 264.044 418.139 264.044H415.939C415.754 264.044 415.604 264.177 415.604 264.342V265.282C415.604 265.447 415.754 265.581 415.939 265.581Z" fill="#3F3D56"/>
<path d="M410.2 265.581H412.401C412.585 265.581 412.735 265.447 412.735 265.282V264.342C412.735 264.177 412.585 264.044 412.401 264.044H410.2C410.016 264.044 409.866 264.177 409.866 264.342V265.282C409.866 265.447 410.016 265.581 410.2 265.581Z" fill="#3F3D56"/>
<path d="M404.462 265.581H406.662C406.847 265.581 406.997 265.447 406.997 265.282V264.342C406.997 264.177 406.847 264.044 406.662 264.044H404.462C404.277 264.044 404.127 264.177 404.127 264.342V265.282C404.127 265.447 404.277 265.581 404.462 265.581Z" fill="#3F3D56"/>
<path d="M398.723 265.581H400.924C401.108 265.581 401.258 265.447 401.258 265.282V264.342C401.258 264.177 401.108 264.044 400.924 264.044H398.723C398.538 264.044 398.389 264.177 398.389 264.342V265.282C398.389 265.447 398.538 265.581 398.723 265.581Z" fill="#3F3D56"/>
<path d="M392.985 265.581H395.185C395.37 265.581 395.52 265.447 395.52 265.282V264.342C395.52 264.177 395.37 264.044 395.185 264.044H392.985C392.8 264.044 392.65 264.177 392.65 264.342V265.282C392.65 265.447 392.8 265.581 392.985 265.581Z" fill="#3F3D56"/>
<path d="M387.246 265.581H389.447C389.631 265.581 389.781 265.447 389.781 265.282V264.342C389.781 264.177 389.631 264.044 389.447 264.044H387.246C387.061 264.044 386.912 264.177 386.912 264.342V265.282C386.912 265.447 387.061 265.581 387.246 265.581Z" fill="#3F3D56"/>
<path d="M381.508 265.581H383.708C383.893 265.581 384.042 265.447 384.042 265.282V264.342C384.042 264.177 383.893 264.044 383.708 264.044H381.508C381.323 264.044 381.173 264.177 381.173 264.342V265.282C381.173 265.447 381.323 265.581 381.508 265.581Z" fill="#3F3D56"/>
<path d="M375.769 265.581H377.969C378.154 265.581 378.304 265.447 378.304 265.282V264.342C378.304 264.177 378.154 264.044 377.969 264.044H375.769C375.584 264.044 375.435 264.177 375.435 264.342V265.282C375.435 265.447 375.584 265.581 375.769 265.581Z" fill="#3F3D56"/>
<path d="M370.031 265.581H372.231C372.416 265.581 372.565 265.447 372.565 265.282V264.342C372.565 264.177 372.416 264.044 372.231 264.044H370.031C369.846 264.044 369.696 264.177 369.696 264.342V265.282C369.696 265.447 369.846 265.581 370.031 265.581Z" fill="#3F3D56"/>
<path d="M364.292 265.581H366.492C366.677 265.581 366.827 265.447 366.827 265.282V264.342C366.827 264.177 366.677 264.044 366.492 264.044H364.292C364.107 264.044 363.958 264.177 363.958 264.342V265.282C363.958 265.447 364.107 265.581 364.292 265.581Z" fill="#3F3D56"/>
<path d="M358.553 265.581H360.754C360.939 265.581 361.088 265.447 361.088 265.282V264.342C361.088 264.177 360.939 264.044 360.754 264.044H358.553C358.369 264.044 358.219 264.177 358.219 264.342V265.282C358.219 265.447 358.369 265.581 358.553 265.581Z" fill="#3F3D56"/>
<path d="M352.815 265.581H355.015C355.2 265.581 355.35 265.447 355.35 265.282V264.342C355.35 264.177 355.2 264.044 355.015 264.044H352.815C352.63 264.044 352.48 264.177 352.48 264.342V265.282C352.48 265.447 352.63 265.581 352.815 265.581Z" fill="#3F3D56"/>
<path d="M347.076 265.581H349.277C349.462 265.581 349.611 265.447 349.611 265.282V264.342C349.611 264.177 349.462 264.044 349.277 264.044H347.076C346.892 264.044 346.742 264.177 346.742 264.342V265.282C346.742 265.447 346.892 265.581 347.076 265.581Z" fill="#3F3D56"/>
<path d="M341.338 265.581H343.538C343.723 265.581 343.873 265.447 343.873 265.282V264.342C343.873 264.177 343.723 264.044 343.538 264.044H341.338C341.153 264.044 341.003 264.177 341.003 264.342V265.282C341.003 265.447 341.153 265.581 341.338 265.581Z" fill="#3F3D56"/>
<path d="M427.484 268.142H429.684C429.869 268.142 430.019 268.009 430.019 267.844V266.904C430.019 266.739 429.869 266.605 429.684 266.605H427.484C427.299 266.605 427.149 266.739 427.149 266.904V267.844C427.149 268.009 427.299 268.142 427.484 268.142Z" fill="#3F3D56"/>
<path d="M421.745 268.142H423.946C424.13 268.142 424.28 268.009 424.28 267.844V266.904C424.28 266.739 424.13 266.605 423.946 266.605H421.745C421.56 266.605 421.411 266.739 421.411 266.904V267.844C421.411 268.009 421.56 268.142 421.745 268.142Z" fill="#3F3D56"/>
<path d="M416.007 268.142H418.207C418.392 268.142 418.541 268.009 418.541 267.844V266.904C418.541 266.739 418.392 266.605 418.207 266.605H416.007C415.822 266.605 415.672 266.739 415.672 266.904V267.844C415.672 268.009 415.822 268.142 416.007 268.142Z" fill="#3F3D56"/>
<path d="M410.268 268.142H412.468C412.653 268.142 412.803 268.009 412.803 267.844V266.904C412.803 266.739 412.653 266.605 412.468 266.605H410.268C410.083 266.605 409.934 266.739 409.934 266.904V267.844C409.934 268.009 410.083 268.142 410.268 268.142Z" fill="#3F3D56"/>
<path d="M404.53 268.142H406.73C406.915 268.142 407.064 268.009 407.064 267.844V266.904C407.064 266.739 406.915 266.605 406.73 266.605H404.53C404.345 266.605 404.195 266.739 404.195 266.904V267.844C404.195 268.009 404.345 268.142 404.53 268.142Z" fill="#3F3D56"/>
<path d="M398.791 268.142H400.991C401.176 268.142 401.326 268.009 401.326 267.844V266.904C401.326 266.739 401.176 266.605 400.991 266.605H398.791C398.606 266.605 398.457 266.739 398.457 266.904V267.844C398.457 268.009 398.606 268.142 398.791 268.142Z" fill="#3F3D56"/>
<path d="M393.052 268.142H395.253C395.438 268.142 395.587 268.009 395.587 267.844V266.904C395.587 266.739 395.438 266.605 395.253 266.605H393.052C392.868 266.605 392.718 266.739 392.718 266.904V267.844C392.718 268.009 392.868 268.142 393.052 268.142Z" fill="#3F3D56"/>
<path d="M387.314 268.142H389.514C389.699 268.142 389.849 268.009 389.849 267.844V266.904C389.849 266.739 389.699 266.605 389.514 266.605H387.314C387.129 266.605 386.979 266.739 386.979 266.904V267.844C386.979 268.009 387.129 268.142 387.314 268.142Z" fill="#3F3D56"/>
<path d="M381.575 268.142H383.776C383.96 268.142 384.11 268.009 384.11 267.844V266.904C384.11 266.739 383.96 266.605 383.776 266.605H381.575C381.391 266.605 381.241 266.739 381.241 266.904V267.844C381.241 268.009 381.391 268.142 381.575 268.142Z" fill="#3F3D56"/>
<path d="M375.837 268.142H378.037C378.222 268.142 378.372 268.009 378.372 267.844V266.904C378.372 266.739 378.222 266.605 378.037 266.605H375.837C375.652 266.605 375.502 266.739 375.502 266.904V267.844C375.502 268.009 375.652 268.142 375.837 268.142Z" fill="#3F3D56"/>
<path d="M370.098 268.142H372.299C372.483 268.142 372.633 268.009 372.633 267.844V266.904C372.633 266.739 372.483 266.605 372.299 266.605H370.098C369.914 266.605 369.764 266.739 369.764 266.904V267.844C369.764 268.009 369.914 268.142 370.098 268.142Z" fill="#3F3D56"/>
<path d="M364.36 268.142H366.56C366.745 268.142 366.895 268.009 366.895 267.844V266.904C366.895 266.739 366.745 266.605 366.56 266.605H364.36C364.175 266.605 364.025 266.739 364.025 266.904V267.844C364.025 268.009 364.175 268.142 364.36 268.142Z" fill="#3F3D56"/>
<path d="M358.621 268.142H360.822C361.006 268.142 361.156 268.009 361.156 267.844V266.904C361.156 266.739 361.006 266.605 360.822 266.605H358.621C358.437 266.605 358.287 266.739 358.287 266.904V267.844C358.287 268.009 358.437 268.142 358.621 268.142Z" fill="#3F3D56"/>
<path d="M352.883 268.142H355.083C355.268 268.142 355.418 268.009 355.418 267.844V266.904C355.418 266.739 355.268 266.605 355.083 266.605H352.883C352.698 266.605 352.548 266.739 352.548 266.904V267.844C352.548 268.009 352.698 268.142 352.883 268.142Z" fill="#3F3D56"/>
<path d="M347.144 268.142H349.345C349.529 268.142 349.679 268.009 349.679 267.844V266.904C349.679 266.739 349.529 266.605 349.345 266.605H347.144C346.959 266.605 346.81 266.739 346.81 266.904V267.844C346.81 268.009 346.959 268.142 347.144 268.142Z" fill="#3F3D56"/>
<path d="M341.406 268.142H343.606C343.791 268.142 343.94 268.009 343.94 267.844V266.904C343.94 266.739 343.791 266.605 343.606 266.605H341.406C341.221 266.605 341.071 266.739 341.071 266.904V267.844C341.071 268.009 341.221 268.142 341.406 268.142Z" fill="#3F3D56"/>
<path d="M379.854 271.217H402.139C402.324 271.217 402.474 271.083 402.474 270.918V269.978C402.474 269.813 402.324 269.679 402.139 269.679H379.854C379.669 269.679 379.519 269.813 379.519 269.978V270.918C379.519 271.083 379.669 271.217 379.854 271.217Z" fill="#3F3D56"/>
<path d="M356.243 219.408H354.295C353.705 219.408 353.226 219.836 353.226 220.363C353.226 220.89 353.705 221.318 354.295 221.318H356.243C356.834 221.318 357.313 220.89 357.313 220.363C357.313 219.836 356.834 219.408 356.243 219.408Z" fill="white"/>
<path d="M378.523 219.408H376.575C375.984 219.408 375.505 219.836 375.505 220.363C375.505 220.89 375.984 221.318 376.575 221.318H378.523C379.113 221.318 379.592 220.89 379.592 220.363C379.592 219.836 379.113 219.408 378.523 219.408Z" fill="white"/>
<path d="M384.835 219.408H382.887C382.297 219.408 381.818 219.836 381.818 220.363C381.818 220.89 382.297 221.318 382.887 221.318H384.835C385.426 221.318 385.905 220.89 385.905 220.363C385.905 219.836 385.426 219.408 384.835 219.408Z" fill="white"/>
<path d="M372.463 219.249H360.355C359.765 219.249 359.286 219.676 359.286 220.204C359.286 220.731 359.765 221.158 360.355 221.158H372.463C373.053 221.158 373.532 220.731 373.532 220.204C373.532 219.676 373.053 219.249 372.463 219.249Z" fill="white"/>
<path d="M402.169 219.249H390.061C389.471 219.249 388.992 219.676 388.992 220.204C388.992 220.731 389.471 221.158 390.061 221.158H402.169C402.759 221.158 403.238 220.731 403.238 220.204C403.238 219.676 402.759 219.249 402.169 219.249Z" fill="white"/>
<path d="M362.184 223.718H360.236C359.646 223.718 359.167 224.145 359.167 224.673C359.167 225.2 359.646 225.627 360.236 225.627H362.184C362.775 225.627 363.254 225.2 363.254 224.673C363.254 224.145 362.775 223.718 362.184 223.718Z" fill="white"/>
<path d="M384.464 223.718H382.516C381.925 223.718 381.446 224.145 381.446 224.673C381.446 225.2 381.925 225.627 382.516 225.627H384.464C385.054 225.627 385.533 225.2 385.533 224.673C385.533 224.145 385.054 223.718 384.464 223.718Z" fill="white"/>
<path d="M390.776 223.718H388.828C388.238 223.718 387.759 224.145 387.759 224.673C387.759 225.2 388.238 225.627 388.828 225.627H390.776C391.367 225.627 391.846 225.2 391.846 224.673C391.846 224.145 391.367 223.718 390.776 223.718Z" fill="white"/>
<path d="M378.404 223.559H366.297C365.706 223.559 365.227 223.986 365.227 224.514C365.227 225.041 365.706 225.468 366.297 225.468H378.404C378.994 225.468 379.473 225.041 379.473 224.514C379.473 223.986 378.994 223.559 378.404 223.559Z" fill="white"/>
<path d="M408.11 223.559H396.002C395.412 223.559 394.933 223.986 394.933 224.514C394.933 225.041 395.412 225.468 396.002 225.468H408.11C408.7 225.468 409.179 225.041 409.179 224.514C409.179 223.986 408.7 223.559 408.11 223.559Z" fill="white"/>
<path d="M368.126 228.028H366.178C365.587 228.028 365.108 228.455 365.108 228.982C365.108 229.51 365.587 229.937 366.178 229.937H368.126C368.716 229.937 369.195 229.51 369.195 228.982C369.195 228.455 368.716 228.028 368.126 228.028Z" fill="white"/>
<path d="M390.405 228.028H388.457C387.866 228.028 387.388 228.455 387.388 228.982C387.388 229.51 387.866 229.937 388.457 229.937H390.405C390.996 229.937 391.474 229.51 391.474 228.982C391.474 228.455 390.996 228.028 390.405 228.028Z" fill="white"/>
<path d="M396.718 228.028H394.77C394.179 228.028 393.7 228.455 393.7 228.982C393.7 229.51 394.179 229.937 394.77 229.937H396.718C397.308 229.937 397.787 229.51 397.787 228.982C397.787 228.455 397.308 228.028 396.718 228.028Z" fill="white"/>
<path d="M384.345 227.869H372.238C371.647 227.869 371.168 228.296 371.168 228.823C371.168 229.351 371.647 229.778 372.238 229.778H384.345C384.936 229.778 385.414 229.351 385.414 228.823C385.414 228.296 384.936 227.869 384.345 227.869Z" fill="white"/>
<path d="M414.051 227.869H401.944C401.353 227.869 400.874 228.296 400.874 228.823C400.874 229.351 401.353 229.778 401.944 229.778H414.051C414.642 229.778 415.12 229.351 415.12 228.823C415.12 228.296 414.642 227.869 414.051 227.869Z" fill="white"/>
<path d="M374.067 232.338H372.119C371.528 232.338 371.049 232.765 371.049 233.292C371.049 233.82 371.528 234.247 372.119 234.247H374.067C374.657 234.247 375.136 233.82 375.136 233.292C375.136 232.765 374.657 232.338 374.067 232.338Z" fill="white"/>
<path d="M396.346 232.338H394.398C393.808 232.338 393.329 232.765 393.329 233.292C393.329 233.82 393.808 234.247 394.398 234.247H396.346C396.937 234.247 397.416 233.82 397.416 233.292C397.416 232.765 396.937 232.338 396.346 232.338Z" fill="white"/>
<path d="M402.659 232.338H400.711C400.12 232.338 399.641 232.765 399.641 233.292C399.641 233.82 400.12 234.247 400.711 234.247H402.659C403.249 234.247 403.728 233.82 403.728 233.292C403.728 232.765 403.249 232.338 402.659 232.338Z" fill="white"/>
<path d="M390.286 232.178H378.179C377.588 232.178 377.109 232.606 377.109 233.133C377.109 233.66 377.588 234.088 378.179 234.088H390.286C390.877 234.088 391.356 233.66 391.356 233.133C391.356 232.606 390.877 232.178 390.286 232.178Z" fill="white"/>
<path d="M378.523 249.475H376.575C375.984 249.475 375.505 249.903 375.505 250.43C375.505 250.957 375.984 251.385 376.575 251.385H378.523C379.113 251.385 379.592 250.957 379.592 250.43C379.592 249.903 379.113 249.475 378.523 249.475Z" fill="white"/>
<path d="M384.835 249.475H382.887C382.297 249.475 381.818 249.903 381.818 250.43C381.818 250.957 382.297 251.385 382.887 251.385H384.835C385.426 251.385 385.905 250.957 385.905 250.43C385.905 249.903 385.426 249.475 384.835 249.475Z" fill="white"/>
<path d="M402.169 249.634H390.061C389.471 249.634 388.992 250.062 388.992 250.589C388.992 251.116 389.471 251.544 390.061 251.544H402.169C402.759 251.544 403.238 251.116 403.238 250.589C403.238 250.062 402.759 249.634 402.169 249.634Z" fill="white"/>
<path d="M356.243 249.475H354.295C353.705 249.475 353.226 249.903 353.226 250.43C353.226 250.957 353.705 251.385 354.295 251.385H356.243C356.834 251.385 357.313 250.957 357.313 250.43C357.313 249.903 356.834 249.475 356.243 249.475Z" fill="white"/>
<path d="M372.463 249.634H360.355C359.765 249.634 359.286 250.062 359.286 250.589C359.286 251.116 359.765 251.544 360.355 251.544H372.463C373.053 251.544 373.532 251.116 373.532 250.589C373.532 250.062 373.053 249.634 372.463 249.634Z" fill="white"/>
<path d="M362.184 245.165H360.236C359.646 245.165 359.167 245.593 359.167 246.12C359.167 246.647 359.646 247.075 360.236 247.075H362.184C362.775 247.075 363.254 246.647 363.254 246.12C363.254 245.593 362.775 245.165 362.184 245.165Z" fill="white"/>
<path d="M384.464 245.165H382.516C381.925 245.165 381.446 245.593 381.446 246.12C381.446 246.647 381.925 247.075 382.516 247.075H384.464C385.054 247.075 385.533 246.647 385.533 246.12C385.533 245.593 385.054 245.165 384.464 245.165Z" fill="white"/>
<path d="M390.776 245.165H388.828C388.238 245.165 387.759 245.593 387.759 246.12C387.759 246.647 388.238 247.075 388.828 247.075H390.776C391.367 247.075 391.846 246.647 391.846 246.12C391.846 245.593 391.367 245.165 390.776 245.165Z" fill="white"/>
<path d="M378.404 245.325H366.297C365.706 245.325 365.227 245.752 365.227 246.279C365.227 246.807 365.706 247.234 366.297 247.234H378.404C378.994 247.234 379.473 246.807 379.473 246.279C379.473 245.752 378.994 245.325 378.404 245.325Z" fill="white"/>
<path d="M368.126 240.856H366.178C365.587 240.856 365.108 241.283 365.108 241.81C365.108 242.338 365.587 242.765 366.178 242.765H368.126C368.716 242.765 369.195 242.338 369.195 241.81C369.195 241.283 368.716 240.856 368.126 240.856Z" fill="white"/>
<path d="M390.405 240.856H388.457C387.866 240.856 387.388 241.283 387.388 241.81C387.388 242.338 387.866 242.765 388.457 242.765H390.405C390.996 242.765 391.474 242.338 391.474 241.81C391.474 241.283 390.996 240.856 390.405 240.856Z" fill="white"/>
<path d="M396.718 240.856H394.77C394.179 240.856 393.7 241.283 393.7 241.81C393.7 242.338 394.179 242.765 394.77 242.765H396.718C397.308 242.765 397.787 242.338 397.787 241.81C397.787 241.283 397.308 240.856 396.718 240.856Z" fill="white"/>
<path d="M384.345 241.015H372.238C371.647 241.015 371.168 241.442 371.168 241.97C371.168 242.497 371.647 242.924 372.238 242.924H384.345C384.936 242.924 385.414 242.497 385.414 241.97C385.414 241.442 384.936 241.015 384.345 241.015Z" fill="white"/>
<path d="M374.067 236.546H372.119C371.528 236.546 371.049 236.973 371.049 237.501C371.049 238.028 371.528 238.455 372.119 238.455H374.067C374.657 238.455 375.136 238.028 375.136 237.501C375.136 236.973 374.657 236.546 374.067 236.546Z" fill="white"/>
<path d="M396.346 236.546H394.398C393.808 236.546 393.329 236.973 393.329 237.501C393.329 238.028 393.808 238.455 394.398 238.455H396.346C396.937 238.455 397.416 238.028 397.416 237.501C397.416 236.973 396.937 236.546 396.346 236.546Z" fill="white"/>
<path d="M402.659 236.546H400.711C400.12 236.546 399.641 236.973 399.641 237.501C399.641 238.028 400.12 238.455 400.711 238.455H402.659C403.249 238.455 403.728 238.028 403.728 237.501C403.728 236.973 403.249 236.546 402.659 236.546Z" fill="white"/>
<path d="M390.286 236.705H378.179C377.588 236.705 377.109 237.132 377.109 237.66C377.109 238.187 377.588 238.615 378.179 238.615H390.286C390.877 238.615 391.356 238.187 391.356 237.66C391.356 237.132 390.877 236.705 390.286 236.705Z" fill="white"/>
<path d="M345.886 299.985L336.742 287.079L365.446 266.649L377.294 254.93C378.833 253.407 380.793 252.272 382.978 251.638C385.162 251.003 387.495 250.892 389.743 251.315C391.991 251.737 394.075 252.679 395.788 254.047C397.5 255.414 398.781 257.158 399.501 259.106C400.569 261.992 400.34 265.135 398.861 267.873C397.382 270.611 394.77 272.728 391.575 273.779L372.841 279.941L345.886 299.985Z" fill="#FFB6B6"/>
<path d="M131.315 206.407V269.134H180.534V206.407C180.535 205.956 180.374 205.517 180.074 205.154C179.775 204.79 179.353 204.522 178.87 204.389C178.642 204.322 178.404 204.289 178.164 204.291H133.692C133.38 204.291 133.071 204.345 132.783 204.451C132.495 204.557 132.233 204.713 132.012 204.91C131.791 205.106 131.616 205.34 131.496 205.597C131.377 205.854 131.315 206.129 131.315 206.407ZM150.523 227.961C150.536 226.724 151.095 225.542 152.079 224.672C153.063 223.801 154.392 223.313 155.777 223.313C157.162 223.313 158.491 223.801 159.475 224.672C160.459 225.542 161.019 226.724 161.031 227.961V235.239C161.024 236.479 160.468 237.666 159.483 238.541C158.498 239.415 157.166 239.906 155.777 239.906C154.388 239.906 153.056 239.415 152.071 238.541C151.087 237.666 150.53 236.479 150.523 235.239V227.961Z" fill="#2F2E41"/>
<path d="M131.164 267.128V273.177C131.165 273.491 131.304 273.791 131.552 274.013C131.799 274.235 132.135 274.361 132.486 274.364H179.363C179.714 274.362 180.051 274.236 180.298 274.014C180.546 273.792 180.685 273.491 180.685 273.177V267.128H131.164Z" fill="#3F3D56"/>
<path d="M53.8849 111.901V226.432C53.8862 227.891 54.5362 229.291 55.6921 230.323C56.8481 231.355 58.4155 231.935 60.0502 231.936H250.148C251.782 231.935 253.35 231.355 254.506 230.323C255.662 229.291 256.312 227.891 256.313 226.432V111.901C256.309 110.443 255.658 109.045 254.503 108.015C253.347 106.984 251.781 106.405 250.148 106.403H60.0502C58.4169 106.405 56.851 106.984 55.6954 108.015C54.5398 109.045 53.8888 110.443 53.8849 111.901Z" fill="#3F3D56"/>
<path d="M58.3445 113.326V225.019C58.346 225.799 58.6936 226.546 59.3112 227.098C59.9289 227.649 60.7661 227.959 61.6395 227.961H248.565C249.439 227.959 250.276 227.649 250.894 227.098C251.511 226.546 251.859 225.799 251.86 225.019V113.326C251.86 112.545 251.513 111.797 250.896 111.244C250.278 110.691 249.44 110.38 248.565 110.378H61.6395C60.765 110.38 59.927 110.691 59.3093 111.244C58.6916 111.797 58.3446 112.545 58.3445 113.326Z" fill="white"/>
<path d="M93.0347 273.954C93.225 274.167 93.4668 274.339 93.7421 274.456C94.0174 274.574 94.3189 274.634 94.624 274.633H205.833C206.137 274.633 206.437 274.572 206.712 274.455C206.986 274.338 207.228 274.168 207.42 273.957C207.611 273.746 207.748 273.5 207.819 273.236C207.891 272.972 207.895 272.697 207.833 272.431L206.107 265.11C206.035 264.812 205.881 264.534 205.659 264.302C205.436 264.07 205.152 263.892 204.833 263.783C204.601 263.702 204.355 263.66 204.106 263.661H96.3435C96.095 263.66 95.8487 263.702 95.6173 263.783C95.2978 263.892 95.0138 264.07 94.7913 264.302C94.5687 264.534 94.4147 264.812 94.3431 265.11L92.6169 272.431C92.5554 272.697 92.5611 272.971 92.6334 273.235C92.7056 273.498 92.8427 273.744 93.0347 273.954Z" fill="#2F2E41"/>
<path d="M242.499 125.764H67.5933C67.4115 125.761 67.2385 125.694 67.1113 125.578C66.9842 125.462 66.913 125.306 66.913 125.143C66.913 124.981 66.9842 124.825 67.1113 124.709C67.2385 124.593 67.4115 124.526 67.5933 124.522H242.499C242.681 124.526 242.854 124.593 242.981 124.709C243.108 124.825 243.179 124.981 243.179 125.143C243.179 125.306 243.108 125.462 242.981 125.578C242.854 125.694 242.681 125.761 242.499 125.764Z" fill="#3F3D56"/>
<path d="M79.4993 121.352C81.7506 121.352 83.5756 119.686 83.5756 117.631C83.5756 115.576 81.7506 113.911 79.4993 113.911C77.2481 113.911 75.4231 115.576 75.4231 117.631C75.4231 119.686 77.2481 121.352 79.4993 121.352Z" fill="#3F3D56"/>
<path d="M93.5809 121.352C95.8322 121.352 97.6572 119.686 97.6572 117.631C97.6572 115.576 95.8322 113.911 93.5809 113.911C91.3297 113.911 89.5047 115.576 89.5047 117.631C89.5047 119.686 91.3297 121.352 93.5809 121.352Z" fill="#3F3D56"/>
<path d="M107.663 121.352C109.914 121.352 111.739 119.686 111.739 117.631C111.739 115.576 109.914 113.911 107.663 113.911C105.411 113.911 103.586 115.576 103.586 117.631C103.586 119.686 105.411 121.352 107.663 121.352Z" fill="#3F3D56"/>
<path d="M234.019 114.831H224.018C223.82 114.835 223.632 114.908 223.494 115.034C223.356 115.161 223.278 115.33 223.278 115.507C223.278 115.683 223.356 115.853 223.494 115.979C223.632 116.105 223.82 116.178 224.018 116.182H234.019C234.218 116.18 234.408 116.108 234.548 115.981C234.688 115.855 234.766 115.684 234.766 115.507C234.766 115.329 234.688 115.159 234.548 115.032C234.408 114.906 234.218 114.833 234.019 114.831Z" fill="#3F3D56"/>
<path d="M234.02 117.369H224.018C223.82 117.373 223.632 117.446 223.493 117.572C223.355 117.698 223.278 117.868 223.278 118.045C223.278 118.221 223.355 118.391 223.493 118.517C223.632 118.644 223.82 118.717 224.018 118.721H234.02C234.219 118.718 234.409 118.646 234.549 118.52C234.689 118.393 234.767 118.223 234.767 118.045C234.767 117.867 234.689 117.696 234.549 117.57C234.409 117.443 234.219 117.371 234.02 117.369Z" fill="#3F3D56"/>
<path d="M234.019 119.907H224.018C223.82 119.911 223.632 119.984 223.494 120.111C223.356 120.237 223.278 120.406 223.278 120.583C223.278 120.76 223.356 120.929 223.494 121.055C223.632 121.182 223.82 121.255 224.018 121.259H234.019C234.218 121.256 234.408 121.184 234.548 121.057C234.688 120.931 234.766 120.761 234.766 120.583C234.766 120.405 234.688 120.235 234.548 120.108C234.408 119.982 234.218 119.91 234.019 119.907Z" fill="#3F3D56"/>
<path d="M475.138 269.783C475.44 270.568 476.012 271.247 476.773 271.722C477.534 272.198 478.445 272.447 479.374 272.432L497.522 272.015C498.457 271.999 499.362 271.712 500.101 271.199C500.839 270.686 501.372 269.973 501.619 269.167L504.187 244.649C505.098 245.017 506.09 245.199 507.09 245.181C507.959 245.162 508.815 244.99 509.609 244.675C510.404 244.36 511.121 243.909 511.72 243.346C512.319 242.784 512.788 242.122 513.1 241.398C513.412 240.674 513.562 239.902 513.54 239.126C513.518 238.35 513.326 237.586 512.973 236.877C512.62 236.167 512.115 235.527 511.485 234.992C510.855 234.458 510.113 234.039 509.302 233.76C508.491 233.481 507.627 233.348 506.758 233.367C506.358 233.366 505.959 233.403 505.568 233.478C505.143 233.067 504.627 232.74 504.052 232.519C503.476 232.297 502.856 232.186 502.229 232.191L474.314 232.835C474.082 232.843 473.852 232.868 473.625 232.911C473.013 233.013 472.433 233.231 471.923 233.55C471.412 233.869 470.985 234.282 470.669 234.761C470.352 235.24 470.155 235.774 470.089 236.327C470.023 236.879 470.091 237.438 470.287 237.966L475.138 269.783ZM504.713 242.984L506.541 237.142C506.749 236.467 506.754 235.755 506.555 235.078C506.643 235.077 506.722 235.04 506.81 235.04C508.063 235.017 509.276 235.438 510.181 236.212C511.087 236.985 511.612 238.048 511.641 239.166C511.67 240.285 511.202 241.368 510.338 242.179C509.474 242.99 508.285 243.461 507.032 243.49C506.222 243.513 505.42 243.338 504.713 242.984Z" fill="#37A3F1"/>
<path d="M473.625 232.911C474.22 235.947 480.907 238.082 488.947 237.711C496.34 237.407 502.385 235.089 503.493 232.342C503.083 232.233 502.657 232.183 502.229 232.191L474.314 232.835C474.082 232.843 473.852 232.868 473.625 232.911Z" fill="#69BAF5"/>
<path d="M490.42 256.31C490.457 256.302 490.492 256.288 490.524 256.27L494.465 253.967C494.512 253.939 494.552 253.901 494.579 253.856C494.606 253.812 494.62 253.762 494.62 253.711C494.62 253.66 494.606 253.61 494.579 253.565C494.552 253.521 494.513 253.483 494.465 253.455L490.369 251.06C490.331 251.037 490.289 251.022 490.245 251.014C490.2 251.007 490.155 251.007 490.111 251.015C490.067 251.023 490.025 251.039 489.987 251.062C489.95 251.084 489.918 251.113 489.893 251.147C489.869 251.181 489.852 251.218 489.843 251.258C489.835 251.297 489.835 251.338 489.845 251.377C489.854 251.417 489.872 251.454 489.897 251.487C489.923 251.521 489.955 251.549 489.993 251.571L493.652 253.71L490.149 255.758C490.081 255.798 490.031 255.857 490.008 255.927C489.985 255.996 489.99 256.071 490.023 256.137C490.055 256.203 490.113 256.257 490.186 256.289C490.259 256.32 490.342 256.328 490.42 256.31H490.42Z" fill="#69BAF5"/>
<path d="M484.196 256.567C484.262 256.552 484.321 256.519 484.367 256.474C484.412 256.429 484.442 256.372 484.451 256.312C484.46 256.251 484.449 256.19 484.419 256.135C484.389 256.081 484.341 256.035 484.282 256.005L480.649 254.145L484.16 251.817C484.196 251.793 484.227 251.763 484.25 251.728C484.273 251.694 484.288 251.656 484.295 251.616C484.301 251.576 484.299 251.536 484.288 251.497C484.277 251.458 484.258 251.421 484.231 251.389C484.204 251.357 484.17 251.33 484.132 251.309C484.093 251.289 484.051 251.275 484.006 251.269C483.962 251.263 483.916 251.265 483.873 251.275C483.829 251.285 483.788 251.302 483.752 251.326L479.821 253.933C479.775 253.964 479.739 254.003 479.715 254.049C479.691 254.095 479.68 254.146 479.683 254.197C479.686 254.247 479.704 254.297 479.734 254.34C479.764 254.383 479.805 254.419 479.855 254.444L483.941 256.535C484.018 256.575 484.109 256.586 484.196 256.567Z" fill="#69BAF5"/>
<path d="M490.028 258.329C490.061 258.321 490.093 258.309 490.122 258.293C490.161 258.272 490.194 258.245 490.221 258.213C490.247 258.18 490.266 258.143 490.277 258.104C490.288 258.065 490.29 258.025 490.283 257.985C490.276 257.945 490.26 257.907 490.237 257.873L484.65 249.672C484.603 249.603 484.527 249.554 484.438 249.535C484.35 249.515 484.257 249.528 484.179 249.571C484.102 249.613 484.046 249.681 484.025 249.759C484.003 249.838 484.018 249.921 484.065 249.991L489.652 258.191C489.69 258.247 489.747 258.291 489.815 258.315C489.882 258.34 489.957 258.345 490.028 258.329Z" fill="#69BAF5"/>
<path d="M175.944 159.525H145.672C144.437 159.525 143.436 160.419 143.436 161.522V164.162C143.436 165.265 144.437 166.159 145.672 166.159H175.944C177.179 166.159 178.18 165.265 178.18 164.162V161.522C178.18 160.419 177.179 159.525 175.944 159.525Z" fill="#6C63FF"/>
<path d="M193.59 172.792H128.027C126.792 172.792 125.79 173.686 125.79 174.788V177.429C125.79 178.531 126.792 179.425 128.027 179.425H193.59C194.825 179.425 195.826 178.531 195.826 177.429V174.788C195.826 173.686 194.825 172.792 193.59 172.792Z" fill="#E6E6E6"/>
<path d="M193.59 186.059H128.027C126.792 186.059 125.79 186.952 125.79 188.055V190.696C125.79 191.798 126.792 192.692 128.027 192.692H193.59C194.825 192.692 195.826 191.798 195.826 190.696V188.055C195.826 186.952 194.825 186.059 193.59 186.059Z" fill="#E6E6E6"/>
<path d="M199.148 230.484L199.296 230.902L199.304 230.916L203.774 243.049L208.916 257.031L218.591 283.307L218.684 287.389V287.403L219.403 320.237L217.41 324.688L219.653 331.986C219.653 331.986 218.622 320.954 213.089 327.29C209.955 330.89 206.29 334.574 203.282 338.027C207.666 339.611 212.12 341.044 216.645 342.325C217.622 342.604 218.606 342.869 219.591 343.135C219.802 343.19 220.013 343.246 220.224 343.302C235.222 347.262 250.728 349.487 266.362 349.923C267.174 349.944 267.971 349.958 268.745 349.972C269.019 349.979 269.284 349.986 269.55 349.986C270.425 349.993 271.293 350 272.168 350C273.934 350 275.692 349.977 277.443 349.93C290.399 349.604 303.28 348.049 315.867 345.29C315.782 340.651 315.547 335.23 315.211 329.439C315.055 326.599 311.546 323.522 311.335 320.55C311.186 318.317 314.336 316.217 314.172 313.949C313.109 299.988 311.78 305.348 310.796 295.461C310.694 294.491 310.6 293.563 310.514 292.677C309.881 286.328 309.444 282.358 309.444 282.358L313.648 258.699L320.251 221.553L319.744 220.806L319.173 220.555L284.343 205.164L282.452 200.838C281.901 199.592 280.945 198.521 279.707 197.764C278.469 197.007 277.005 196.598 275.505 196.589L252.561 196.505C251.37 196.501 250.195 196.749 249.134 197.231C248.072 197.713 247.155 198.414 246.458 199.275L240.245 206.957L199.148 230.484Z" fill="#37A3F1"/>
<path d="M223.881 277.46L218.684 287.389L215.137 294.17L209.033 322.7L205.978 325.595L203.36 315.345L175.96 320.777C175.061 316.318 175.719 320.927 175.164 316.036C175.321 315.897 175.485 315.757 175.649 315.618C176.087 315.255 176.454 314.913 176.446 314.585C176.133 297.715 177.071 269.004 184.902 251.61C186.128 248.77 187.745 246.077 189.715 243.594C189.872 243.405 190.02 243.217 190.169 243.028C193.779 238.514 196.061 234.07 199.296 230.909V230.902C199.316 230.888 199.335 230.871 199.351 230.853C199.363 230.848 199.373 230.841 199.382 230.832L221.607 220.311L222.56 244.228L223.24 261.42L223.881 277.46Z" fill="#37A3F1"/>
<path d="M304.02 280.28L310.511 292.681L312.777 296.999L318.878 325.526L321.924 328.414L324.548 318.167L325.781 317.941L348.016 313.829L354.497 332.206C355.958 330.033 356.533 327.476 356.126 324.968C355.719 322.46 354.354 320.155 352.263 318.441C351.82 318.084 351.452 317.736 351.462 317.406C351.831 297.564 350.471 261.331 338.195 246.419C334.296 241.686 331.956 236.973 328.552 233.68C328.542 233.67 328.542 233.661 328.531 233.661L320.248 221.552L319.743 220.809L319.174 220.555L304.02 280.28Z" fill="#37A3F1"/>
<path d="M264.696 190.676C281.553 190.676 295.22 178.474 295.22 163.423C295.22 148.372 281.553 136.171 264.696 136.171C247.838 136.171 234.171 148.372 234.171 163.423C234.171 178.474 247.838 190.676 264.696 190.676Z" fill="#FFB6B6"/>
<path d="M305.952 144.388C305.716 144.162 305.431 143.981 305.114 143.856C304.797 143.731 304.456 143.664 304.11 143.66L304.569 142.522C304.718 142.164 304.759 141.776 304.686 141.399C304.613 141.023 304.429 140.67 304.153 140.377C303.877 140.085 303.518 139.863 303.115 139.735C302.711 139.607 302.277 139.577 301.856 139.648L300.184 139.935L300.342 138.938C300.402 138.567 300.353 138.188 300.2 137.839C300.047 137.489 299.794 137.182 299.467 136.946C299.14 136.71 298.75 136.554 298.335 136.494C297.921 136.434 297.496 136.471 297.102 136.602C296.743 136.728 296.358 136.78 295.974 136.756C295.59 136.732 295.217 136.631 294.882 136.461C294.546 136.296 294.254 136.068 294.027 135.793C293.8 135.517 293.643 135.2 293.567 134.865L292.985 132.357L292.923 132.223C290.087 128.002 284.634 124.932 277.962 123.807C272.022 122.798 265.933 123.311 260.062 123.795C257.733 123.99 255.102 124.21 252.91 125.409C251.047 126.437 249.471 128.492 249.793 130.565C244.005 128.981 237.798 132.143 234.722 136.131C231.078 140.877 230.482 146.822 230.386 151.47C230.126 162.467 232.667 171.464 237.921 178.216C238.305 178.705 238.401 179.726 239.161 180.069L239.004 179.843C239.853 180.222 240.716 180.833 240.394 181.488C239.47 183.372 245.614 187.537 249.944 188.913C257.842 191.427 268.344 191.213 275.729 190.307L275.989 188.748C278.654 188.424 280.531 187.806 281.058 186.84C281.99 186.13 282.784 185.494 283.476 184.907L283.483 184.901C283.497 184.888 283.524 184.87 283.538 184.858C286.874 182.002 287.648 180.375 287.998 177.898C288.333 175.47 287.737 173.005 287.128 170.785C299.965 172.558 282.072 158.577 294.033 155.874C294.17 155.836 294.309 155.805 294.451 155.782C294.8 155.708 295.149 155.635 295.485 155.549C297.103 155.157 298.652 154.567 300.088 153.794C303.431 151.978 304.534 149.568 306.261 146.852C306.51 146.466 306.614 146.018 306.559 145.575C306.503 145.132 306.291 144.716 305.952 144.388Z" fill="#2F2E41"/>
<path d="M372.654 282.221C372.647 283.291 372.634 284.789 372.579 286.642C372.572 286.899 372.565 287.162 372.558 287.431C372.469 290.838 372.38 293.694 372.236 296.869C372.23 297.089 372.223 297.303 372.209 297.523C372.017 301.951 371.716 307.107 371.195 315.272C370.229 330.354 368.544 317.345 366.852 322.636C366.77 322.899 366.681 323.211 366.599 323.578C366.342 324.909 365.91 326.209 365.311 327.449C364.413 327.926 363.488 328.385 362.577 328.844C359.981 330.134 357.344 331.376 354.686 332.556C353.192 333.217 351.692 333.865 350.185 334.489C349.945 334.587 349.712 334.685 349.48 334.776C341.762 337.963 333.808 340.673 325.675 342.886C324.085 343.314 322.503 343.73 320.9 344.116C319.228 344.532 317.557 344.923 315.865 345.29C303.277 348.049 290.397 349.605 277.441 349.932C275.694 349.981 273.934 349.999 272.166 349.999C271.29 349.999 270.426 349.993 269.55 349.987C269.282 349.987 269.015 349.981 268.748 349.975C267.974 349.957 267.172 349.944 266.364 349.926C250.731 349.491 235.225 347.265 220.227 343.302L219.59 343.137C218.603 342.868 217.624 342.605 216.644 342.324C212.123 341.045 207.668 339.614 203.279 338.03C199.929 336.825 196.618 335.533 193.346 334.153C193.316 334.145 193.288 334.133 193.264 334.116C192.579 333.834 191.887 333.541 191.202 333.241C191.113 333.198 191.017 333.156 190.921 333.113C188.366 332 185.838 330.834 183.338 329.614C181.235 325.302 178.275 324.477 176.439 320.685C175.905 319.558 175.519 318.38 175.289 317.174C175.289 317.162 175.282 317.15 175.282 317.131C175.474 319.407 174.467 313.095 175.275 317.107C175.268 317.033 175.261 316.954 175.254 316.862C175.234 316.642 175.206 316.373 175.165 316.037C172.816 295.554 172.966 272.129 171.946 252.826C171.877 251.579 171.806 250.384 171.733 249.242C171.713 248.863 171.685 248.49 171.658 248.123C171.706 248.013 171.761 247.897 171.822 247.787C171.835 247.755 171.851 247.724 171.87 247.695C171.89 247.657 171.913 247.62 171.939 247.585C171.952 247.567 171.973 247.542 171.987 247.524C171.997 247.503 172.008 247.482 172.021 247.463C172.083 247.377 172.151 247.285 172.226 247.2C172.261 247.163 172.288 247.132 172.322 247.102C172.346 247.07 172.374 247.042 172.405 247.016C172.426 246.987 172.451 246.96 172.48 246.937C172.507 246.912 172.535 246.882 172.569 246.851C172.584 246.832 172.602 246.815 172.624 246.802C172.678 246.746 172.738 246.695 172.802 246.649C173.046 246.448 173.307 246.264 173.583 246.099C173.679 246.044 173.782 245.989 173.877 245.927C174.568 245.559 175.295 245.248 176.049 244.998C176.309 244.912 176.57 244.833 176.85 244.747C176.953 244.723 177.049 244.692 177.152 244.661C177.303 244.619 177.453 244.576 177.611 244.545C178.392 244.337 179.234 244.16 180.145 243.995C180.255 243.976 180.372 243.958 180.488 243.934C180.652 243.903 180.824 243.879 180.995 243.854C181.228 243.817 181.468 243.781 181.707 243.744C183.742 243.457 186.051 243.242 188.599 243.102C188.839 243.09 189.078 243.077 189.318 243.065C189.599 243.053 189.88 243.041 190.168 243.028C190.407 243.016 190.654 243.01 190.901 243.004C191.14 242.992 191.387 242.986 191.64 242.979C192.332 242.961 193.045 242.943 193.771 242.931C195.84 242.894 198.018 242.906 200.306 242.949C201.368 242.973 202.45 242.998 203.56 243.041C203.635 243.041 203.704 243.047 203.772 243.047C204.738 243.077 205.711 243.114 206.711 243.163C207.41 243.194 208.116 243.224 208.821 243.261C209.486 243.298 210.157 243.334 210.835 243.377C211.363 243.402 211.89 243.438 212.424 243.469C212.876 243.499 213.329 243.53 213.781 243.554L214.397 243.591C214.733 243.616 215.069 243.634 215.411 243.664C216.165 243.72 216.918 243.775 217.685 243.83C218.446 243.891 219.22 243.952 219.994 244.013C220.768 244.074 221.549 244.142 222.33 244.209C222.412 244.215 222.488 244.221 222.563 244.227C223.275 244.294 223.988 244.356 224.707 244.423C224.871 244.435 225.043 244.447 225.207 244.466C225.893 244.527 226.592 244.599 227.284 244.665C227.497 244.685 227.708 244.705 227.921 244.726C228.463 244.779 228.997 244.824 229.543 244.882C230.263 244.955 230.996 245.022 231.708 245.108C232.263 245.163 232.818 245.218 233.373 245.279C234.243 245.371 235.126 245.469 236.01 245.573C236.346 245.609 236.681 245.646 237.017 245.689C239.538 245.97 242.086 246.282 244.676 246.606C248.601 247.102 252.588 247.64 256.602 248.221C260.623 248.802 264.667 249.416 268.734 250.062C269.762 250.227 270.789 250.392 271.824 250.563C272.29 250.643 272.755 250.722 273.221 250.802C274.016 250.93 274.811 251.065 275.605 251.2C276.4 251.334 277.194 251.469 277.989 251.609C278.934 251.774 279.887 251.94 280.832 252.105C287.059 253.206 293.252 254.38 299.294 255.609C300.287 255.811 301.28 256.019 302.267 256.221C304.24 256.631 306.194 257.047 308.131 257.469C308.665 257.579 309.192 257.695 309.72 257.811C311.035 258.105 312.35 258.398 313.645 258.698L313.871 258.753C314.823 258.961 315.755 259.175 316.687 259.395C318.886 259.909 321.048 260.429 323.174 260.955C324.585 261.303 325.98 261.656 327.36 262.013C329.422 262.545 331.442 263.083 333.408 263.627C333.895 263.762 334.381 263.897 334.861 264.025C336.299 264.423 337.717 264.826 339.094 265.23C340.19 265.548 341.259 265.872 342.314 266.196C343.369 266.52 344.403 266.845 345.417 267.169C346.068 267.377 346.712 267.597 347.356 267.805C348.281 268.111 349.192 268.416 350.082 268.722C350.356 268.814 350.623 268.912 350.891 269.004C351.062 269.071 351.226 269.126 351.391 269.187C351.713 269.303 352.042 269.413 352.357 269.53C352.679 269.64 352.994 269.756 353.309 269.878C353.617 269.988 353.932 270.104 354.234 270.221C354.542 270.331 354.843 270.447 355.145 270.569C355.398 270.661 355.645 270.759 355.885 270.857C356.371 271.046 356.857 271.236 357.33 271.432C357.563 271.53 357.796 271.621 358.029 271.719L358.563 271.939C358.638 271.976 358.714 272.007 358.789 272.037C358.96 272.111 359.138 272.19 359.31 272.263C359.707 272.429 360.098 272.606 360.481 272.771C360.995 273.004 361.495 273.236 361.975 273.462C362.461 273.695 362.934 273.927 363.386 274.153C363.461 274.19 363.53 274.227 363.605 274.263C363.708 274.312 363.81 274.367 363.913 274.416C364.263 274.594 364.598 274.777 364.934 274.955C365.592 275.315 366.215 275.67 366.797 276.025C366.927 276.104 367.051 276.184 367.181 276.257C367.612 276.532 368.023 276.802 368.407 277.077C368.407 277.083 368.407 277.083 368.414 277.083C368.544 277.169 368.667 277.26 368.791 277.346C368.893 277.432 369.003 277.505 369.106 277.591C369.462 277.866 369.791 278.129 370.092 278.398C370.193 278.481 370.289 278.569 370.38 278.661C370.42 278.69 370.456 278.723 370.489 278.759C370.626 278.881 370.75 279.003 370.866 279.126C370.884 279.143 370.9 279.161 370.914 279.181C371.079 279.352 371.229 279.523 371.373 279.695C371.442 279.78 371.517 279.866 371.579 279.951C371.661 280.055 371.743 280.165 371.812 280.269C371.873 280.355 371.928 280.447 371.983 280.532C372.128 280.753 372.252 280.984 372.353 281.224C372.43 281.386 372.492 281.554 372.538 281.725C372.59 281.888 372.629 282.053 372.654 282.221Z" fill="#9BD1F8"/>
<path opacity="0.2" d="M372.654 282.221C372.647 283.291 372.634 284.789 372.579 286.642C372.572 286.899 372.558 287.162 372.551 287.431C372.483 290.031 372.38 293.242 372.236 296.869C372.23 297.089 372.223 297.303 372.209 297.523C372.017 301.951 371.716 307.107 371.195 315.272C370.229 330.354 368.544 317.345 366.852 322.636C362.153 320.055 357.001 317.352 351.493 314.575C350.5 314.073 349.498 313.57 348.486 313.064C337.471 307.578 325.168 301.829 312.323 296.135C311.816 295.908 311.302 295.682 310.796 295.462C281.373 282.477 249.259 269.848 223.241 261.42C218.22 259.793 213.424 258.325 208.917 257.034C199.422 254.325 191.216 252.429 184.9 251.609C178.323 250.753 173.781 251.059 171.946 252.826C171.877 251.579 171.806 250.384 171.733 249.242C171.706 248.863 171.678 248.49 171.651 248.123C171.693 248.022 171.748 247.926 171.801 247.829C171.809 247.815 171.814 247.801 171.822 247.787C171.835 247.755 171.851 247.724 171.87 247.695C171.89 247.657 171.913 247.62 171.939 247.585C171.961 247.542 171.989 247.5 172.021 247.463C172.083 247.377 172.151 247.285 172.226 247.2C172.282 247.135 172.341 247.074 172.405 247.016C172.426 246.987 172.451 246.96 172.48 246.937C172.507 246.912 172.535 246.881 172.569 246.851C172.584 246.832 172.602 246.815 172.624 246.802C172.678 246.746 172.738 246.695 172.802 246.649C173.046 246.448 173.307 246.264 173.583 246.099C173.679 246.044 173.781 245.989 173.877 245.927C174.568 245.559 175.295 245.247 176.049 244.998C176.309 244.912 176.57 244.833 176.85 244.747C176.953 244.723 177.049 244.692 177.152 244.661C177.303 244.619 177.453 244.576 177.611 244.545C178.392 244.337 179.234 244.16 180.145 243.995C180.419 243.946 180.707 243.897 180.995 243.854C181.228 243.817 181.468 243.781 181.707 243.744C183.742 243.457 186.05 243.242 188.599 243.102C188.839 243.09 189.078 243.077 189.318 243.065C189.599 243.053 189.88 243.041 190.168 243.028C190.407 243.016 190.654 243.01 190.901 243.004C191.14 242.992 191.387 242.986 191.64 242.979C192.332 242.961 193.045 242.943 193.771 242.931C195.84 242.9 198.018 242.912 200.306 242.955C201.368 242.973 202.45 243.004 203.56 243.047C203.628 243.047 203.704 243.053 203.772 243.053C204.738 243.077 205.718 243.12 206.711 243.163C207.41 243.194 208.115 243.224 208.821 243.261C209.486 243.297 210.157 243.334 210.835 243.377C211.363 243.401 211.89 243.438 212.424 243.469C212.876 243.499 213.329 243.53 213.781 243.554C214.322 243.591 214.863 243.628 215.411 243.664C216.165 243.719 216.918 243.775 217.685 243.83C218.446 243.891 219.22 243.952 219.994 244.013C220.768 244.074 221.549 244.141 222.33 244.209C222.412 244.215 222.488 244.221 222.563 244.227C223.275 244.294 223.988 244.356 224.707 244.423C228.694 244.784 232.797 245.206 237.017 245.689C239.538 245.976 242.091 246.284 244.676 246.612C248.601 247.108 252.588 247.646 256.602 248.221C260.624 248.802 264.667 249.416 268.734 250.062C269.762 250.227 270.789 250.392 271.824 250.563C273.084 250.771 274.345 250.983 275.605 251.199C276.4 251.334 277.194 251.469 277.989 251.609C278.934 251.774 279.887 251.94 280.832 252.105C287.059 253.206 293.252 254.38 299.294 255.609C300.287 255.811 301.28 256.019 302.267 256.221C304.24 256.631 306.194 257.046 308.131 257.469C308.665 257.585 309.193 257.701 309.72 257.817C311.042 258.111 312.351 258.404 313.645 258.698V258.704C313.721 258.716 313.796 258.735 313.871 258.753C314.817 258.967 315.755 259.181 316.687 259.401C318.886 259.915 321.048 260.433 323.174 260.955C324.585 261.309 325.983 261.658 327.36 262.013C329.422 262.551 331.442 263.089 333.409 263.627C333.895 263.762 334.381 263.897 334.861 264.025C336.299 264.429 337.711 264.83 339.094 265.23C340.19 265.548 341.259 265.872 342.314 266.196C343.369 266.52 344.403 266.845 345.417 267.169C346.075 267.377 346.719 267.591 347.356 267.799C348.288 268.104 349.192 268.41 350.082 268.722C350.356 268.814 350.623 268.912 350.891 269.004C351.391 269.175 351.877 269.352 352.357 269.53C352.679 269.64 352.994 269.756 353.309 269.878C353.617 269.988 353.932 270.104 354.234 270.221C354.542 270.331 354.843 270.447 355.145 270.569C355.398 270.661 355.645 270.759 355.885 270.857C356.371 271.046 356.857 271.236 357.33 271.432C357.563 271.529 357.796 271.621 358.029 271.719L358.563 271.939C358.638 271.976 358.714 272.007 358.789 272.037C359.371 272.282 359.933 272.526 360.481 272.771C360.995 273.003 361.495 273.236 361.975 273.462C362.543 273.731 363.084 273.994 363.605 274.263C363.708 274.312 363.81 274.367 363.913 274.416C364.263 274.594 364.598 274.777 364.934 274.954C365.591 275.315 366.215 275.67 366.797 276.025C367.373 276.38 367.907 276.728 368.407 277.077C368.407 277.083 368.407 277.083 368.414 277.083C368.654 277.254 368.887 277.425 369.106 277.591C369.462 277.866 369.791 278.129 370.092 278.398C370.193 278.481 370.289 278.569 370.38 278.661C370.42 278.69 370.457 278.723 370.49 278.759C370.633 278.899 370.777 279.04 370.914 279.181C371.079 279.352 371.229 279.523 371.373 279.694C371.442 279.78 371.517 279.866 371.579 279.951C371.661 280.055 371.743 280.165 371.812 280.269C371.873 280.355 371.928 280.447 371.983 280.532C372.128 280.753 372.252 280.984 372.353 281.224C372.428 281.387 372.49 281.554 372.538 281.725C372.59 281.888 372.629 282.053 372.654 282.221Z" fill="black"/>
</g>
<defs>
<clipPath id="clip0_170_104">
<rect width="539" height="350" fill="white"/>
</clipPath>
</defs>
</svg>
