<svg width="60" height="39" viewBox="0 0 60 39" fill="none" xmlns="http://www.w3.org/2000/svg">
<path fill-rule="evenodd" clip-rule="evenodd" d="M1.43879 0.0965487C2.29778 -0.1607 3.2427 0.107798 3.78362 0.762828L29.0747 31.3892V1.89594C29.0747 1.38976 29.299 0.904594 29.6975 0.548514C30.096 0.192434 30.6357 -0.00498694 31.1963 0.000223965L31.1747 1.89594C31.1963 0.000223933 31.1968 0.000228614 31.1974 0.000234167L31.2039 0.000300547L31.2201 0.000486254L31.2779 0.00127661C31.3275 0.00202047 31.3991 0.00323944 31.4912 0.00517955C31.6754 0.00905913 31.9418 0.0158259 32.2788 0.0274525C32.9524 0.050694 33.91 0.0934216 35.058 0.171551C37.3466 0.327296 40.4269 0.62598 43.5375 1.20118C46.6159 1.77042 49.8815 2.63802 52.4457 3.99802C55.0021 5.35391 57.2598 7.43306 57.356 10.4779C57.4401 13.1413 55.8106 15.2038 53.8349 16.6955C51.8656 18.1825 49.3151 19.2965 46.9118 20.1201C44.9824 20.7813 43.061 21.2843 41.4523 21.65L59.2796 35.6748C60.154 36.3626 60.2451 37.5602 59.4832 38.3496C58.7212 39.1389 57.3947 39.2212 56.5203 38.5333L35.5203 22.0126C34.9046 21.5282 34.6558 20.7655 34.8825 20.0572C35.1091 19.349 35.7699 18.8236 36.5767 18.7101L36.5835 18.7091L36.6159 18.7044C36.6461 18.7 36.6932 18.693 36.7559 18.6833C36.8814 18.664 37.0697 18.6341 37.3116 18.5932C37.7957 18.5113 38.4928 18.3854 39.3307 18.2115C41.0138 17.8621 43.2312 17.3258 45.4212 16.5753C47.6365 15.8161 49.6899 14.8822 51.1404 13.787C52.5847 12.6965 53.191 11.6426 53.1577 10.5859C53.121 9.42341 52.302 8.31943 50.3181 7.26721C48.342 6.2191 45.6037 5.45363 42.6947 4.9157C39.818 4.38375 36.9276 4.10118 34.7423 3.95247C34.2047 3.91588 33.7118 3.88753 33.2747 3.86559V37.1041C33.2747 37.9211 32.6949 38.6462 31.8359 38.9035C30.9769 39.1607 30.032 38.8922 29.4911 38.2372L4.2 7.61085V37.104C4.2 38.1511 3.2598 38.9999 2.1 38.9999C0.940202 38.9999 0 38.1511 0 37.104V1.89594C0 1.07892 0.579806 0.353797 1.43879 0.0965487Z" fill="#04D2EE"/>
</svg>
