<svg width="222" height="43" viewBox="0 0 222 43" fill="none" xmlns="http://www.w3.org/2000/svg">
<path fill-rule="evenodd" clip-rule="evenodd" d="M12.9561 9.32151C13.456 9.216 13.9901 9.36799 14.2649 9.69395L30.9581 29.4992V10.1484C30.9581 9.91537 31.0862 9.69231 31.313 9.53029C31.5398 9.36826 31.8459 9.28114 32.1613 9.28887L32.1227 10.1484C32.1613 9.28887 32.1617 9.28888 32.1621 9.28889L32.1662 9.28899L32.1761 9.28926L32.2102 9.29026C32.2393 9.29116 32.2809 9.29254 32.3343 9.29454C32.4409 9.29856 32.5945 9.30508 32.7883 9.31528C33.1758 9.33566 33.7257 9.37079 34.3848 9.43009C35.698 9.54825 37.468 9.76437 39.2586 10.1582C41.0359 10.5491 42.9144 11.1323 44.383 12.0165C45.878 12.9166 46.985 14.1566 47.0485 15.7999C47.1618 18.7354 43.8285 20.4581 41.0809 21.3881C39.8653 21.7996 38.6541 22.0956 37.6676 22.3L52.934 32.0293C53.4209 32.3396 53.4749 32.8827 53.0547 33.2423C52.6345 33.6018 51.8991 33.6418 51.4122 33.3314L34.4093 22.4955C34.0665 22.277 33.9263 21.9316 34.0498 21.6098C34.1732 21.2883 34.5377 21.0487 34.9845 20.9954C34.9847 20.9954 34.985 20.9953 34.9852 20.9953L34.9879 20.995L35.0058 20.9928C35.0228 20.9906 35.0496 20.9872 35.0856 20.9824C35.1576 20.9728 35.2663 20.9577 35.4063 20.9367C35.6865 20.8947 36.091 20.829 36.5774 20.7358C37.5549 20.5485 38.8416 20.254 40.1104 19.8245C42.7655 18.9258 44.7893 17.6385 44.7203 15.8489C44.6805 14.8202 44.0158 14.0147 42.9112 13.3496C41.7801 12.6686 40.2311 12.1667 38.5938 11.8066C36.9698 11.4495 35.338 11.2486 34.1031 11.1375C33.8047 11.1106 33.5307 11.0891 33.2873 11.072V32.5084C33.2873 32.8923 32.9427 33.2298 32.4427 33.3353C31.9428 33.4408 31.4088 33.2888 31.134 32.9628L14.4407 13.1575V32.5084C14.4407 32.9833 13.9193 33.3684 13.2762 33.3684C12.633 33.3684 12.1116 32.9833 12.1116 32.5084V10.1484C12.1116 9.76445 12.4562 9.42702 12.9561 9.32151Z" fill="#9BD1F8"/>
<path fill-rule="evenodd" clip-rule="evenodd" d="M25.1396 0.203965C32.5514 -0.554479 40.0749 0.819311 46.1515 4.04094C52.2282 7.26259 56.3924 12.0853 57.7811 17.5102C59.1793 22.9719 57.2117 28.5088 53.1759 33.1095C52.8262 33.5082 52.1051 33.622 51.5653 33.3638C51.0255 33.1055 50.8714 32.573 51.221 32.1744C54.9913 27.8764 56.7606 22.7832 55.4925 17.8297C54.215 12.8392 50.3841 8.40231 44.7931 5.43815C39.2021 2.47396 32.2795 1.20979 25.4593 1.90769C18.6391 2.60558 12.4445 5.21201 8.15843 9.18676C3.87242 13.1615 1.82335 18.1999 2.43539 23.2584C3.04743 28.3169 6.27373 33.0081 11.4464 36.3602C16.619 39.7122 23.3416 41.4682 30.2215 41.264C37.1015 41.0598 43.6111 38.9112 48.402 35.2636C48.8498 34.9226 49.5871 34.9143 50.0488 35.245C50.5104 35.5757 50.5217 36.1201 50.0739 36.4611C44.8666 40.4258 37.7918 42.7607 30.3151 42.9826C22.8383 43.2045 15.5321 41.2962 9.91007 37.653C4.28797 34.0096 0.780805 28.9104 0.115476 23.4115C-0.549854 17.9126 1.67769 12.4357 6.33638 8.11532C10.995 3.79502 17.7277 0.96241 25.1396 0.203965Z" fill="#9BD1F8"/>
<path d="M68.7691 29.5V13.66H71.8051L78.6911 24.22V13.66H81.7271V29.5H78.6911L71.8051 18.94V29.5H68.7691ZM83.6965 29.5L88.5365 13.66H93.0025L97.8425 29.5H94.7625L90.4505 15.53H91.0225L86.7765 29.5H83.6965ZM86.6005 26.2V23.406H94.9605V26.2H86.6005ZM99.814 29.5V13.66H102.85L109.736 24.22V13.66H112.772V29.5H109.736L102.85 18.94V29.5H99.814ZM115.841 29.5V13.66H120.967C121.092 13.66 121.349 13.6637 121.737 13.671C122.126 13.6783 122.5 13.704 122.859 13.748C124.135 13.902 125.217 14.3457 126.104 15.079C126.992 15.8123 127.666 16.7437 128.128 17.873C128.59 19.0023 128.821 20.238 128.821 21.58C128.821 22.922 128.59 24.1577 128.128 25.287C127.666 26.4163 126.992 27.3477 126.104 28.081C125.217 28.8143 124.135 29.258 122.859 29.412C122.5 29.456 122.126 29.4817 121.737 29.489C121.349 29.4963 121.092 29.5 120.967 29.5H115.841ZM118.877 26.684H120.967C121.165 26.684 121.433 26.6803 121.77 26.673C122.108 26.6583 122.412 26.6253 122.683 26.574C123.373 26.4347 123.934 26.112 124.366 25.606C124.806 25.1 125.129 24.4913 125.334 23.78C125.547 23.0687 125.653 22.3353 125.653 21.58C125.653 20.788 125.543 20.0363 125.323 19.325C125.111 18.6137 124.784 18.0123 124.344 17.521C123.904 17.0297 123.351 16.718 122.683 16.586C122.412 16.5273 122.108 16.4943 121.77 16.487C121.433 16.4797 121.165 16.476 120.967 16.476H118.877V26.684ZM131.681 29.5V13.66H134.673V29.5H131.681ZM137.97 29.5V13.66H148.31V16.454H140.962V19.842H146.99V22.636H140.962V26.706H148.31V29.5H137.97ZM150.947 29.5V13.66H157.635C157.789 13.66 157.994 13.6673 158.251 13.682C158.515 13.6893 158.75 13.7113 158.955 13.748C159.901 13.8947 160.675 14.2063 161.276 14.683C161.885 15.1597 162.332 15.761 162.618 16.487C162.904 17.2057 163.047 18.0087 163.047 18.896C163.047 20.2233 162.717 21.36 162.057 22.306C161.397 23.2447 160.363 23.824 158.955 24.044L157.635 24.132H153.939V29.5H150.947ZM159.879 29.5L156.755 23.054L159.835 22.46L163.267 29.5H159.879ZM153.939 21.338H157.503C157.657 21.338 157.826 21.3307 158.009 21.316C158.192 21.3013 158.361 21.272 158.515 21.228C158.918 21.118 159.23 20.9347 159.45 20.678C159.67 20.414 159.82 20.1243 159.901 19.809C159.989 19.4863 160.033 19.182 160.033 18.896C160.033 18.61 159.989 18.3093 159.901 17.994C159.82 17.6713 159.67 17.3817 159.45 17.125C159.23 16.861 158.918 16.674 158.515 16.564C158.361 16.52 158.192 16.4907 158.009 16.476C157.826 16.4613 157.657 16.454 157.503 16.454H153.939V21.338ZM170.089 29.5V13.66H176.777C176.931 13.66 177.137 13.6673 177.393 13.682C177.657 13.6893 177.892 13.7113 178.097 13.748C179.043 13.8947 179.817 14.2063 180.418 14.683C181.027 15.1597 181.474 15.761 181.76 16.487C182.046 17.2057 182.189 18.0087 182.189 18.896C182.189 20.2233 181.859 21.36 181.199 22.306C180.539 23.2447 179.505 23.824 178.097 24.044L176.777 24.132H173.081V29.5H170.089ZM179.021 29.5L175.897 23.054L178.977 22.46L182.409 29.5H179.021ZM173.081 21.338H176.645C176.799 21.338 176.968 21.3307 177.151 21.316C177.335 21.3013 177.503 21.272 177.657 21.228C178.061 21.118 178.372 20.9347 178.592 20.678C178.812 20.414 178.963 20.1243 179.043 19.809C179.131 19.4863 179.175 19.182 179.175 18.896C179.175 18.61 179.131 18.3093 179.043 17.994C178.963 17.6713 178.812 17.3817 178.592 17.125C178.372 16.861 178.061 16.674 177.657 16.564C177.503 16.52 177.335 16.4907 177.151 16.476C176.968 16.4613 176.799 16.454 176.645 16.454H173.081V21.338ZM191.274 29.83C189.998 29.83 188.876 29.5733 187.908 29.06C186.94 28.5393 186.184 27.8097 185.642 26.871C185.099 25.9323 184.828 24.8287 184.828 23.56V13.682L187.864 13.66V23.538C187.864 24.0587 187.952 24.5317 188.128 24.957C188.304 25.3823 188.546 25.749 188.854 26.057C189.169 26.365 189.532 26.6033 189.943 26.772C190.361 26.9333 190.804 27.014 191.274 27.014C191.758 27.014 192.205 26.9297 192.616 26.761C193.034 26.5923 193.397 26.354 193.705 26.046C194.013 25.738 194.251 25.3713 194.42 24.946C194.596 24.5207 194.684 24.0513 194.684 23.538V13.66H197.72V23.56C197.72 24.8287 197.448 25.9323 196.906 26.871C196.363 27.8097 195.608 28.5393 194.64 29.06C193.672 29.5733 192.55 29.83 191.274 29.83ZM201.011 29.5V13.66H204.003V29.5H201.011ZM206.86 29.5V29.126L214.384 16.454H207.52V13.66H219.62V14.034L212.14 26.684H219.4V29.5H206.86Z" fill="#9BD1F8"/>
</svg>
