<svg width="50" height="37" viewBox="0 0 50 37" fill="none" xmlns="http://www.w3.org/2000/svg">
<path fill-rule="evenodd" clip-rule="evenodd" d="M11.1251 8.0042C11.5544 7.9136 12.013 8.04411 12.2489 8.32401L26.583 25.3303V8.71423C26.583 8.51413 26.693 8.3226 26.8877 8.18347C27.0825 8.04435 27.3453 7.96954 27.6162 7.97617L27.583 8.71423C27.6162 7.97617 27.6165 7.97618 27.6168 7.97619L27.6204 7.97628L27.6288 7.97651L27.6581 7.97737C27.6831 7.97814 27.7189 7.97932 27.7646 7.98104C27.8562 7.98449 27.9881 7.99009 28.1545 7.99885C28.4873 8.01635 28.9595 8.04652 29.5254 8.09744C30.653 8.19889 32.1729 8.38447 33.7104 8.72264C35.2366 9.0583 36.8496 9.55907 38.1106 10.3183C39.3943 11.0913 40.3449 12.156 40.3994 13.567C40.4967 16.0877 37.6345 17.5669 35.2752 18.3655C34.2313 18.7188 33.1914 18.973 32.3442 19.1485L45.4531 27.5029C45.8712 27.7693 45.9177 28.2356 45.5568 28.5444C45.196 28.8531 44.5645 28.8874 44.1464 28.621L29.5465 19.3164C29.2521 19.1288 29.1317 18.8322 29.2377 18.5559C29.3437 18.2798 29.6567 18.074 30.0404 18.0283C30.0406 18.0283 30.0408 18.0282 30.041 18.0282L30.0432 18.0279L30.0587 18.026C30.0732 18.0242 30.0962 18.0212 30.1272 18.0171C30.189 18.0089 30.2823 17.9959 30.4025 17.9779C30.6432 17.9418 30.9905 17.8854 31.4082 17.8054C32.2475 17.6445 33.3523 17.3917 34.4419 17.0229C36.7217 16.2512 38.4595 15.1458 38.4002 13.6091C38.3661 12.7258 37.7953 12.0341 36.8468 11.463C35.8756 10.8782 34.5454 10.4473 33.1395 10.1381C31.7451 9.83142 30.3439 9.65892 29.2835 9.56352C29.0272 9.54046 28.792 9.522 28.583 9.50729V27.9142C28.583 28.2439 28.2871 28.5337 27.8578 28.6242C27.4285 28.7148 26.97 28.5843 26.734 28.3044L12.3999 11.2981V27.9142C12.3999 28.3221 11.9522 28.6527 11.3999 28.6527C10.8476 28.6527 10.3999 28.3221 10.3999 27.9142V8.71423C10.3999 8.38454 10.6958 8.09479 11.1251 8.0042Z" fill="#9BD1F8"/>
<path fill-rule="evenodd" clip-rule="evenodd" d="M21.5868 0.17514C27.9512 -0.476118 34.4114 0.703524 39.6292 3.46986C44.8471 6.23621 48.4228 10.3774 49.6153 15.0356C50.8159 19.7254 49.1263 24.4798 45.6609 28.4304C45.3606 28.7727 44.7414 28.8704 44.2779 28.6487C43.8144 28.4269 43.682 27.9697 43.9823 27.6274C47.2197 23.9368 48.739 19.5634 47.6501 15.3099C46.5531 11.0248 43.2637 7.21487 38.4628 4.66961C33.6619 2.12433 27.7176 1.03881 21.8613 1.63808C16.005 2.23735 10.6858 4.47543 7.00545 7.88846C3.32516 11.3014 1.56567 15.6279 2.09121 19.9715C2.61676 24.3151 5.38711 28.3433 9.82871 31.2216C14.2704 34.0999 20.0429 35.6077 25.9505 35.4324C31.8582 35.2571 37.4478 33.4122 41.5616 30.28C41.9462 29.9872 42.5793 29.9801 42.9757 30.2641C43.3721 30.548 43.3818 31.0155 42.9973 31.3083C38.5259 34.7127 32.4509 36.7176 26.0308 36.9082C19.6107 37.0987 13.3371 35.4601 8.50955 32.3317C3.68198 29.2033 0.670459 24.8247 0.0991566 20.1029C-0.472147 15.3811 1.44059 10.6782 5.4409 6.96844C9.44118 3.2587 15.2224 0.826399 21.5868 0.17514Z" fill="#9BD1F8"/>
</svg>
