<svg width="64" height="64" viewBox="0 0 64 64" fill="none" xmlns="http://www.w3.org/2000/svg">
<path d="M40.0568 44.6297H46.9642L35.9375 16.0121H28.3002L17.2735 44.6297H24.1815L25.9835 39.7822H36.4022L34.5163 34.4182H27.6562L32.1188 22.1047L40.0568 44.6297ZM62.8348 23.442C62.5893 22.558 61.6763 22.0387 60.7885 22.2852C59.9043 22.5307 59.386 23.4467 59.6315 24.331C60.3248 26.8272 60.676 29.4075 60.676 32C60.676 47.812 47.812 60.6755 32 60.6755C16.188 60.6755 3.32425 47.812 3.32425 32C3.32425 16.1877 16.188 3.324 32 3.324C38.6982 3.324 45.1795 5.7035 50.2948 9.938C50.0958 10.413 49.9852 10.9342 49.9852 11.4812C49.9852 13.69 51.7758 15.4805 53.9845 15.4805C56.1933 15.4805 57.9837 13.69 57.9837 11.4812C57.9837 9.2725 56.1933 7.482 53.9845 7.482C53.5593 7.482 53.15 7.54975 52.7655 7.67275C47.0055 2.764 39.6283 0 32 0C14.3552 0 0 14.355 0 32C0 49.6448 14.3552 63.9997 32 63.9997C49.6448 63.9997 64 49.6448 64 32C64 29.107 63.6083 26.2275 62.8348 23.442Z" fill="#112B49"/>
</svg>
