<svg width="64" height="64" viewBox="0 0 64 64" fill="none" xmlns="http://www.w3.org/2000/svg">
<g clip-path="url(#clip0_161_421)">
<path d="M31.9608 64L5.82439 57.6023L0 0H64L58.1694 57.5933L31.9608 64Z" fill="#264DE4"/>
<path d="M53.1779 53.9258L58.1605 4.70972H32.0001V59.1029L53.1779 53.9258Z" fill="#2965F1"/>
<path d="M13.3523 26.0737L14.0704 33.1383H32V26.0737H13.3523Z" fill="#EBEBEB"/>
<path d="M11.9094 11.7747L12.6378 18.8394H32V11.7747H11.9094Z" fill="#EBEBEB"/>
<path d="M32 44.4213L31.9649 44.4296L23.0417 42.3051L22.4713 36.6707H14.4283L15.5508 47.7632L31.9631 51.7806L32 51.7716V44.4213Z" fill="#EBEBEB"/>
<path d="M50.5964 26.0738L52.0428 11.7747H31.9723V18.8394H43.2622L42.5332 26.0738H31.9723V33.1384H41.8383L40.9083 42.3008L31.9723 44.4274V51.7774L48.3976 47.7634L48.5181 46.5699L50.4009 27.9708L50.5964 26.0738Z" fill="white"/>
</g>
<defs>
<clipPath id="clip0_161_421">
<rect width="64" height="64" fill="white"/>
</clipPath>
</defs>
</svg>
