<svg width="64" height="64" viewBox="0 0 64 64" fill="none" xmlns="http://www.w3.org/2000/svg">
<path d="M31.9609 63.8382L5.9154 58.7108L0.111267 12.5457H63.8887L58.0784 58.7036L31.9609 63.8382Z" fill="#264DE4"/>
<path d="M53.1042 55.7644L58.0695 16.3203H32V59.9135L53.1042 55.7644Z" fill="#2965F1"/>
<path d="M13.4171 33.4424L14.1327 39.1043H32V33.4424H13.4171Z" fill="#EBEBEB"/>
<path d="M11.9792 21.9824L12.7051 27.6445H32V21.9824H11.9792Z" fill="#EBEBEB"/>
<path d="M31.9999 48.1471L31.965 48.1537L23.0728 46.451L22.5044 41.9353H14.4894L15.608 50.8254L31.9632 54.0451L31.9999 54.0379V48.1471Z" fill="#EBEBEB"/>
<path d="M15.1208 0H24.7912V2.86774H19.1648V5.73547H24.7912V8.60321H15.1208V0Z" fill="black"/>
<path d="M26.7252 0H36.3955V2.49368H30.7692V2.99242H36.3955V8.72789H26.7252V6.10952H32.3516V5.61079H26.7252V0Z" fill="black"/>
<path d="M38.3297 0H48V2.49368H42.3736V2.99242H48V8.72789H38.3297V6.10952H43.956V5.61079H38.3297V0Z" fill="black"/>
<path d="M50.5316 33.4424L51.9731 21.9824H31.9724V27.6445H43.223L42.4965 33.4424H31.9724V39.1043H41.8041L40.8773 46.4475L31.9724 48.1519V54.0425L48.3405 50.8255L48.4606 49.8689L50.3368 34.9628L50.5316 33.4424Z" fill="white"/>
</svg>
