<svg width="64" height="64" viewBox="0 0 64 64" fill="none" xmlns="http://www.w3.org/2000/svg">
<g clip-path="url(#clip0_180_455)">
<path d="M32.0002 51.6379V64C52.9531 64 69.2673 43.7578 62.4132 21.8014C59.4179 12.2063 51.7937 4.58208 42.1987 1.58682C20.2424 -5.26738 0 11.0473 0 32.0003H12.3903C12.3921 32.0003 12.3936 31.9971 12.3936 31.9971C12.3954 18.8475 25.4088 8.68125 39.2336 13.6978C44.3553 15.5565 48.4407 19.6411 50.3005 24.7626C55.3177 38.5793 45.1668 51.5877 32.0285 51.6063V39.2842C32.0285 39.2842 32.0274 39.2835 32.0263 39.2835H19.6741C19.673 39.2835 19.6719 39.2853 19.6719 39.2853V51.6379H32.0002ZM19.6698 61.1321H10.1789L10.1767 61.1299V51.6379H19.6719V61.1299C19.6719 61.1299 19.6709 61.1321 19.6698 61.1321ZM10.1833 51.6379H2.22702C2.22375 51.6379 2.22121 51.6357 2.22121 51.6357V43.6831C2.22121 43.6831 2.22375 43.6773 2.22702 43.6773H10.1774C10.1807 43.6773 10.1833 43.6798 10.1833 43.6798V51.6379Z" fill="#0080FF"/>
</g>
<defs>
<clipPath id="clip0_180_455">
<rect width="64" height="64" fill="white"/>
</clipPath>
</defs>
</svg>
