<svg width="64" height="64" viewBox="0 0 64 64" fill="none" xmlns="http://www.w3.org/2000/svg">
<path d="M31.9516 34.4773V42.7124C42.42 42.7124 50.5709 29.228 47.1464 14.6017C45.65 8.20988 41.8408 3.13098 37.0469 1.13568C26.0772 -3.43026 15.9637 7.43777 15.9637 21.3957H22.1542C22.1551 21.3957 22.1558 21.3935 22.1558 21.3935C22.1567 12.6339 28.6584 5.86164 35.5655 9.20342C38.1244 10.4416 40.1655 13.1626 41.0947 16.5742C43.6014 25.7783 38.5299 34.4438 31.9657 34.4563V26.2478C31.9657 26.2478 31.9652 26.2474 31.9647 26.2474H25.7933C25.7927 26.2474 25.7922 26.2486 25.7922 26.2486V34.4773H31.9516ZM25.7911 40.8019H21.0493L21.0482 40.8004V34.4773H25.7922V40.8004C25.7922 40.8004 25.7916 40.8019 25.7911 40.8019ZM21.0515 34.4773H17.0764C17.0748 34.4773 17.0735 34.4759 17.0735 34.4759V29.1782C17.0735 29.1782 17.0748 29.1743 17.0764 29.1743H21.0486C21.0502 29.1743 21.0515 29.176 21.0515 29.176V34.4773Z" fill="#0080FF"/>
<path d="M5.52412 51.0658C4.71932 50.3212 3.7178 49.9438 2.54749 49.9438H0V60.7203H2.54749C3.7149 60.7203 4.71678 60.3219 5.52503 59.537C5.96487 59.1207 6.31044 58.5391 6.55229 57.8088C6.79288 57.0824 6.9149 56.2254 6.9149 55.2621C6.9149 54.3099 6.79288 53.464 6.55211 52.7478C6.31044 52.0281 5.96451 51.4622 5.52412 51.0658ZM1.48795 51.7653H2.2875C3.17716 51.7653 3.90944 51.9986 4.46477 52.4596C5.0812 52.9552 5.39395 53.8979 5.39395 55.2621C5.39395 56.667 5.08048 57.6524 4.46259 58.1917H4.46205C3.93029 58.6607 3.20236 58.8985 2.29856 58.8985H1.48795V51.7653ZM7.9583 60.7203H9.39078V53.1302H7.9583V60.7203ZM8.68823 49.8111C8.44347 49.8111 8.23243 49.9269 8.06255 50.1537C7.89067 50.372 7.80347 50.6488 7.80347 50.9763C7.80347 51.3027 7.89013 51.5838 8.06146 51.812C8.23243 52.0404 8.44347 52.1562 8.68823 52.1562C8.93299 52.1562 9.14384 52.0404 9.31517 51.812C9.48669 51.5835 9.57335 51.3024 9.57335 50.9763C9.57335 50.6492 9.48614 50.3724 9.31517 50.1551C9.14384 49.9269 8.93299 49.8111 8.68823 49.8111ZM14.5927 53.7643C14.1609 53.252 13.6786 52.9532 13.157 52.9532C12.3663 52.9532 11.7091 53.318 11.2038 54.0365C10.6922 54.7493 10.4325 55.6667 10.4325 56.763C10.4325 57.8344 10.688 58.7487 11.1929 59.4818C11.7018 60.1911 12.3627 60.5506 13.157 60.5506C13.7092 60.5506 14.1839 60.3456 14.5708 59.9407V60.1154C14.5708 60.7452 14.4442 61.2352 14.1949 61.5717C13.9458 61.9077 13.6003 62.0779 13.1682 62.0779C12.507 62.0779 12.0926 61.7314 11.588 60.8223L10.6126 62.0718L10.6389 62.1211C10.8495 62.5154 11.1723 62.9012 11.5981 63.2679C12.0242 63.633 12.5598 63.8186 13.1902 63.8186C14.0407 63.8186 14.7285 63.4691 15.2351 62.7799C15.7445 62.087 16.0029 61.1593 16.0029 60.0233V53.1302H14.5927V53.7643ZM14.2171 58.247C13.9667 58.6261 13.6452 58.8098 13.2344 58.8098C12.8238 58.8098 12.5041 58.6261 12.2574 58.2475C12.0119 57.8707 11.8871 57.3712 11.8871 56.763C11.8871 56.1449 12.0119 55.6392 12.2575 55.2597C12.5008 54.8842 12.8296 54.6937 13.2344 54.6937C13.6449 54.6937 13.9665 54.8789 14.2169 55.2606C14.4664 55.6399 14.5927 56.1454 14.5927 56.763C14.5927 57.371 14.4664 57.8704 14.2171 58.247ZM17.2289 60.7203H18.6613V53.1302H17.2289V60.7203ZM17.959 49.8111C17.714 49.8111 17.503 49.9269 17.3331 50.1537C17.1612 50.372 17.074 50.6488 17.074 50.9763C17.074 51.3027 17.1607 51.5838 17.332 51.812C17.503 52.0404 17.714 52.1562 17.959 52.1562C18.2036 52.1562 18.4144 52.0404 18.5859 51.812C18.7573 51.5835 18.8439 51.3024 18.8439 50.9763C18.8439 50.6492 18.7567 50.3724 18.5859 50.1551C18.4144 49.9269 18.2036 49.8111 17.959 49.8111ZM21.801 51.0795H20.3908V53.1302H19.5719V54.8709H20.3908V58.0237C20.3908 59.0102 20.5386 59.7161 20.8303 60.1215C21.1227 60.5288 21.642 60.7352 22.3737 60.7352C22.6065 60.7352 22.8407 60.7249 23.0697 60.705L23.1343 60.6992V58.9599L22.6431 58.9943C22.3021 58.9943 22.0744 58.9142 21.9661 58.7571C21.8565 58.5973 21.801 58.2594 21.801 57.7529V54.8709H23.1343V53.1302H21.801V51.0795ZM28.0505 53.698H28.0503C27.6163 53.2039 27.0162 52.9532 26.267 52.9532C25.7904 52.9532 25.3447 53.0927 24.9415 53.3654C24.5686 53.6175 24.2023 54.0353 23.9695 54.5818L23.984 54.605L24.9013 55.7758C25.2791 54.9727 25.6992 54.6937 26.2561 54.6937C26.5555 54.6937 26.8039 54.8008 26.9948 55.0119C27.1846 55.2215 27.2771 55.4881 27.2771 55.826V56.1947C26.9219 56.0506 26.5676 55.9776 26.223 55.9776C25.5101 55.9776 24.9301 56.2012 24.4991 56.6422C24.0627 57.0886 23.8415 57.7273 23.8415 58.5408C23.8415 59.2539 24.0281 59.8331 24.3972 60.2639C24.7696 60.6792 25.2349 60.8902 25.7804 60.8902C26.3258 60.8902 26.8359 60.597 27.2992 60.0954V60.7203H28.7095V55.841C28.7095 54.9171 28.4878 54.1962 28.0505 53.698ZM25.5072 57.8199C25.6696 57.6688 25.8992 57.5927 26.1896 57.5927C26.5344 57.5927 26.9001 57.685 27.2771 57.8673V58.6118C26.9658 58.9976 26.5498 59.1934 26.0406 59.1934C25.7925 59.1934 25.5998 59.12 25.4673 58.9747C25.3373 58.8325 25.274 58.6517 25.274 58.4225C25.274 58.1622 25.3503 57.9649 25.5072 57.8199ZM29.8508 60.7203H31.2833V49.9438H29.8508V60.7203ZM36.4805 60.8827C34.1831 60.8827 32.314 58.3906 32.314 55.3271C32.314 52.2638 34.1831 49.7717 36.4805 49.7717C38.778 49.7717 40.6471 52.2638 40.6471 55.3271C40.6471 58.3906 38.778 60.8827 36.4805 60.8827ZM36.4805 51.7296C34.9928 51.7296 33.7824 53.3434 33.7824 55.3271C33.7824 57.311 34.9928 58.9246 36.4805 58.9246C37.9683 58.9246 39.1787 57.311 39.1787 55.3271C39.1787 53.3434 37.9683 51.7296 36.4805 51.7296ZM45.7547 58.0063C45.4986 58.3892 45.2364 58.7211 45.0344 58.8937V58.8939C44.8364 59.0634 44.5864 59.1494 44.2916 59.1494C43.8696 59.1494 43.5302 58.9445 43.2537 58.5224C42.9788 58.1025 42.8394 57.5629 42.8394 56.9177C42.8394 56.2728 42.977 55.7339 43.2484 55.3172C43.5213 54.8975 43.8589 54.6937 44.2806 54.6937C44.742 54.6937 45.2284 55.0762 45.6452 55.7335L46.592 54.5228C45.9747 53.4517 45.1873 52.9532 44.2476 52.9532C43.4609 52.9532 42.7792 53.3352 42.2213 54.0882C41.6662 54.8356 41.3848 55.7878 41.3848 56.9177C41.3848 58.0479 41.666 59.0022 42.2204 59.7548C42.7754 60.508 43.4575 60.8902 44.2476 60.8902C45.2846 60.8902 46.1217 60.2931 46.6861 59.1995L45.7547 58.0063ZM51.6339 54.1907C51.4308 53.8131 51.1541 53.5095 50.8115 53.2873C50.4697 53.0656 50.0714 52.9532 49.6277 52.9532C48.8282 52.9532 48.1739 53.3465 47.6825 54.123C47.2057 54.8934 46.9642 55.8509 46.9642 56.9695C46.9642 58.1196 47.2293 59.0719 47.7523 59.7992C48.2723 60.523 48.9685 60.8902 49.8214 60.8902C50.7874 60.8902 51.58 60.3693 52.1772 59.3419L52.2095 59.2865L51.2751 58.0892C51.1884 58.2284 51.0657 58.3865 50.9536 58.5272C50.8122 58.7051 50.6793 58.8429 50.5372 58.9372C50.323 59.0793 50.083 59.1494 49.8143 59.1494C49.4174 59.1494 49.0887 58.9938 48.8374 58.6868C48.6025 58.3996 48.465 58.0123 48.4286 57.5339H52.2236L52.2365 56.8367C52.2365 56.3434 52.1861 55.8681 52.0868 55.4238C51.9874 54.9788 51.8349 54.5637 51.6339 54.1907ZM48.5031 55.9776C48.572 55.6145 48.6975 55.3121 48.8771 55.0774C49.0713 54.8226 49.3239 54.6937 49.6281 54.6937C49.9753 54.6937 50.2442 54.8253 50.4269 55.0858C50.5964 55.3266 50.692 55.6264 50.7119 55.9776H48.5031ZM57.135 53.698H57.1348C56.7007 53.2039 56.1006 52.9532 55.3515 52.9532C54.8748 52.9532 54.4292 53.0927 54.026 53.3654C53.6528 53.6175 53.2866 54.0353 53.054 54.5818L53.0685 54.605L53.9857 55.7758C54.3636 54.9727 54.7836 54.6937 55.3406 54.6937C55.6399 54.6937 55.8883 54.8008 56.0792 55.0119C56.2691 55.2215 56.3615 55.4881 56.3615 55.826V56.1947C56.0062 56.0506 55.6521 55.9776 55.3072 55.9776C54.5945 55.9776 54.0144 56.2012 53.5836 56.6422C53.1472 57.0886 52.926 57.7273 52.926 58.5408C52.926 59.2539 53.1126 59.8331 53.4817 60.2639C53.8539 60.6792 54.3193 60.8902 54.8649 60.8902C55.4102 60.8902 55.9204 60.597 56.3835 60.0954V60.7203H57.794V55.841C57.794 54.9171 57.5723 54.1962 57.135 53.698ZM54.5916 57.8199C54.7541 57.6688 54.9836 57.5927 55.2741 57.5927C55.6189 57.5927 55.9846 57.685 56.3615 57.8673V58.6118C56.05 58.9976 55.6343 59.1934 55.1249 59.1934C54.877 59.1934 54.6843 59.12 54.5518 58.9747C54.4218 58.8325 54.3585 58.6517 54.3585 58.4225C54.3585 58.1622 54.4348 57.9649 54.5916 57.8199ZM63.3045 53.8469C62.9055 53.2542 62.3449 52.9532 61.6378 52.9532C61.0696 52.9532 60.608 53.1708 60.2628 53.6001V53.1302H58.8581V60.7203H60.2905V56.5343C60.2905 55.9592 60.3932 55.5026 60.5955 55.1767C60.7975 54.8518 61.075 54.6937 61.4442 54.6937C61.7687 54.6937 62.0145 54.8349 62.196 55.1252C62.3782 55.417 62.4705 55.8188 62.4705 56.3206V60.7203H63.903V56.3206C63.903 55.2693 63.7018 54.4373 63.3045 53.8469Z" fill="#0080FF"/>
</svg>
