<svg width="64" height="64" viewBox="0 0 64 64" fill="none" xmlns="http://www.w3.org/2000/svg">
<path d="M16 64.0001C24.832 64.0001 32 59.2214 32 53.3334V42.6667H16C7.168 42.6667 0 47.4454 0 53.3334C0 59.2214 7.168 64.0001 16 64.0001Z" fill="#0ACF83"/>
<path d="M0 31.9999C0 26.1119 7.168 21.3333 16 21.3333H32V42.6666H16C7.168 42.6666 0 37.8879 0 31.9999Z" fill="#A259FF"/>
<path d="M0 10.6667C0 4.77867 7.168 0 16 0H32V21.3333H16C7.168 21.3333 0 16.5547 0 10.6667Z" fill="#F24E1E"/>
<path d="M32 0H48C56.832 0 64 4.77867 64 10.6667C64 16.5547 56.832 21.3333 48 21.3333H32V0Z" fill="#FF7262"/>
<path d="M64 31.9999C64 37.8879 56.832 42.6666 48 42.6666C39.168 42.6666 32 37.8879 32 31.9999C32 26.1119 39.168 21.3333 48 21.3333C56.832 21.3333 64 26.1119 64 31.9999Z" fill="#1ABCFE"/>
</svg>
