<svg width="64" height="64" viewBox="0 0 64 64" fill="none" xmlns="http://www.w3.org/2000/svg">
<path fill-rule="evenodd" clip-rule="evenodd" d="M38.144 7.32521L52.9305 14.9139C53.3469 14.5219 53.8332 14.1757 54.3849 13.8909C57.4516 12.3239 61.363 13.2543 63.1443 15.9802C64.9071 18.7061 63.8604 22.1829 60.7937 23.7663C60.2462 24.046 59.6712 24.2462 59.086 24.3707V39.554C59.6649 39.6788 60.2336 39.8777 60.7754 40.1545C63.8604 41.7379 64.9071 45.2147 63.1259 47.9406C61.363 50.6665 57.4333 51.597 54.3666 50.0299C53.756 49.718 53.2255 49.3297 52.7814 48.8862L38.085 56.4286C38.2951 56.9929 38.4088 57.5965 38.4088 58.2241C38.4088 61.3581 35.5441 63.9208 32 63.9208C28.4559 63.9208 25.5912 61.3744 25.5912 58.2241C25.5912 57.6641 25.6817 57.1232 25.8505 56.6123L11.0679 49.0257C10.656 49.41 10.1763 49.7496 9.63343 50.0299C6.54839 51.597 2.63699 50.6665 0.874108 47.9406C-0.888774 45.2147 0.157937 41.7379 3.22462 40.1545C3.76683 39.8775 4.33546 39.6785 4.91405 39.5537V24.3707C4.32877 24.2462 3.75376 24.046 3.20625 23.7663C0.139574 22.1993 -0.907138 18.7061 0.855745 15.9802C2.61863 13.2543 6.54839 12.3239 9.61507 13.8909C10.1638 14.1742 10.6478 14.5181 11.0627 14.9075L25.8532 7.31677C25.6827 6.80343 25.5912 6.25972 25.5912 5.69672C25.5912 2.54639 28.4559 0 32 0C35.5441 0 38.4088 2.54639 38.4088 5.69672C38.4088 6.26281 38.3163 6.80939 38.144 7.32521ZM36.6034 9.6633L51.4251 17.27C50.967 18.7004 51.1351 20.2863 52.0344 21.6769C52.9367 23.072 54.4064 23.9968 56.0376 24.3573V39.5595C55.9545 39.5777 55.8718 39.5973 55.7896 39.6183L36.4313 9.81525C36.4898 9.76557 36.5471 9.71491 36.6034 9.6633ZM27.5727 9.81869L8.21483 39.6213C8.13114 39.5997 8.04697 39.5796 7.96236 39.561V24.3573C9.59355 23.9968 11.0633 23.072 11.9656 21.6769C12.8666 20.2836 13.0337 18.6941 12.5721 17.2616L27.3897 9.65697C27.4495 9.71196 27.5105 9.76588 27.5727 9.81869ZM33.7907 11.1688L53.1442 40.9647C52.7111 41.3317 52.3293 41.7595 52.0161 42.2439C51.7046 42.7255 51.4809 43.231 51.3405 43.7456H12.6599C12.5195 43.2313 12.2956 42.7259 11.9839 42.2439C11.6694 41.7626 11.2885 41.3372 10.8575 40.9717L30.2147 11.1702C30.7812 11.3156 31.3802 11.3934 32 11.3934C32.6217 11.3934 33.2226 11.3151 33.7907 11.1688ZM36.7395 54.3862L51.465 46.8289C51.4208 46.7055 51.3814 46.5809 51.3467 46.4552H12.6517C12.6312 46.5291 12.609 46.6026 12.5852 46.6756L27.3829 54.2701C28.5481 53.1952 30.1849 52.5274 32 52.5274C33.8796 52.5274 35.5681 53.2436 36.7395 54.3862Z" fill="#E535AB"/>
</svg>
