<svg width="64" height="64" viewBox="0 0 64 64" fill="none" xmlns="http://www.w3.org/2000/svg">
<path d="M63.8887 12.5457L58.0784 58.7036L31.9609 63.8382L5.9154 58.7108L0.111267 12.5457H63.8887Z" fill="#E44D26"/>
<path d="M32 59.9135L53.1042 55.7644L58.0695 16.3203H32V59.9135Z" fill="#F16529"/>
<path d="M20.7051 27.6445H32V21.9824H11.9792L12.1704 23.5014L14.1327 39.1043H32V33.4424H21.4347L20.7051 27.6445Z" fill="#EBEBEB"/>
<path d="M22.5044 41.9353H14.4894L15.608 50.8254L31.9632 54.0451L31.9999 54.0379V48.1471L31.965 48.1537L23.0728 46.451L22.5044 41.9353Z" fill="#EBEBEB"/>
<path d="M6.04517 0H10.1027V2.8428H13.8143V0H17.872V8.6087H13.8145V5.726H10.1028V8.6087H6.04534V0H6.04517Z" fill="black"/>
<path d="M23.2077 2.85477H19.6357V0H30.8392V2.85477H27.2656V8.6087H23.2079V2.85477H23.2077Z" fill="black"/>
<path d="M32.6173 0H36.8482L39.4507 3.02484L42.0506 0H46.2831V8.6087H42.2423V4.34175L39.4507 7.40262H39.3809L36.5874 4.34175V8.6087H32.6173V0Z" fill="black"/>
<path d="M48.3024 0H52.3611V5.76315H58.0671V8.6087H48.3024V0Z" fill="black"/>
<path d="M31.9724 39.1043H41.8041L40.8773 46.4474L31.9724 48.1519V54.0425L48.3405 50.8255L48.4606 49.8689L50.3368 34.9628L50.5316 33.4424H31.9724V39.1043Z" fill="white"/>
<path d="M31.9724 27.6306V27.6445H51.2582L51.4183 26.3718L51.7821 23.5014L51.9731 21.9824H31.9724V27.6306Z" fill="white"/>
</svg>
