<svg width="64" height="64" viewBox="0 0 64 64" fill="none" xmlns="http://www.w3.org/2000/svg">
<g clip-path="url(#clip0_161_442)">
<path d="M64 0L58.1694 57.5933L31.9608 64L5.82439 57.6023L0 0H64Z" fill="#E44D26"/>
<path d="M32.0001 59.1029L53.1779 53.9258L58.1605 4.70972H32.0001V59.1029Z" fill="#F16529"/>
<path d="M20.6657 18.8394H32V11.7747H11.9094L12.1012 13.67L14.0704 33.1384H32V26.0738H21.3979L20.6657 18.8394Z" fill="#EBEBEB"/>
<path d="M22.4713 36.6707H14.4283L15.5508 47.7632L31.9631 51.7806L32 51.7716V44.4214L31.9649 44.4296L23.0417 42.3051L22.4713 36.6707Z" fill="#EBEBEB"/>
<path d="M31.9723 33.1383H41.8383L40.9083 42.3007L31.9723 44.4274V51.7773L48.3976 47.7634L48.5181 46.5698L50.4009 27.9708L50.5964 26.0737H31.9723V33.1383Z" fill="white"/>
<path d="M31.9723 18.8222V18.8394H51.3254L51.4861 17.2515L51.8512 13.67L52.0428 11.7747H31.9723V18.8222Z" fill="white"/>
</g>
<defs>
<clipPath id="clip0_161_442">
<rect width="64" height="64" fill="white"/>
</clipPath>
</defs>
</svg>
