<svg width="64" height="64" viewBox="0 0 64 64" fill="none" xmlns="http://www.w3.org/2000/svg">
<path d="M32 64C49.6731 64 64 49.6731 64 32C64 14.3269 49.6731 0 32 0C14.3269 0 0 14.3269 0 32C0 49.6731 14.3269 64 32 64Z" fill="#13AA52"/>
<path d="M40.5538 28.09C38.5325 19.1694 33.7557 16.2363 33.2413 15.1156C32.6788 14.325 32.1088 12.9187 32.1088 12.9187C32.0994 12.895 32.0844 12.8531 32.0669 12.8125C32.0088 13.6031 31.9788 13.9081 31.2313 14.7056C30.0738 15.6106 24.135 20.5938 23.6519 30.7288C23.2013 40.1813 30.48 45.8138 31.4644 46.5319L31.5763 46.6113V46.6044C31.5825 46.6519 31.8888 48.8544 32.1038 51.1881H32.875C33.056 49.5385 33.3272 47.9 33.6875 46.28L33.75 46.2394C34.1904 45.9237 34.6102 45.5803 35.0069 45.2113L35.0519 45.1706C37.1444 43.2375 40.9063 38.7663 40.8694 31.6375C40.8616 30.4483 40.756 29.2619 40.5538 28.09ZM32.0219 41.195C32.0219 41.195 32.0219 27.9375 32.4594 27.94C32.8007 27.94 33.2425 45.0406 33.2425 45.0406C32.635 44.9675 32.0219 42.2262 32.0219 41.195Z" fill="white"/>
</svg>
