<svg width="64" height="64" viewBox="0 0 64 64" fill="none" xmlns="http://www.w3.org/2000/svg">
<path d="M19.0387 42.2321L20.9837 51.4905C21.4207 53.5926 21.6029 55.06 21.53 55.8964C22.5939 51.7168 23.337 47.1619 23.7599 42.2321H26.0986C25.093 50.2579 23.7666 56.0903 22.1203 59.7286C20.8375 62.5322 19.4322 63.9339 17.902 63.9339C17.494 63.9339 16.991 63.7531 16.3941 63.394V61.4593C16.6857 61.5221 17.0279 61.5556 17.4214 61.5556C18.1353 61.5556 18.7106 61.2654 19.1483 60.6861C19.6725 59.9803 19.9348 59.187 19.9348 58.3078C19.9348 57.7073 19.7302 56.4751 19.3229 54.6112L16.6128 42.2321H19.0387ZM4.15301 36.5415L7.71561 52.4878H7.73747L11.3219 36.5415H14.2504C14.8917 44.4496 15.2704 51.6855 15.3867 58.2439H12.9176C12.8308 52.113 12.5901 46.3478 12.1966 40.9474H12.1749L8.41514 58.2439H6.53498L2.79801 40.9474H2.776C2.49871 46.1338 2.32427 51.8989 2.25152 58.2439H0C0.145498 50.5274 0.509623 43.2938 1.09238 36.5415H4.15301Z" fill="#00758F"/>
<path d="M44.0622 36.2195C47.8943 36.2195 49.8105 39.8113 49.8105 46.9911C49.8105 50.8928 49.2343 53.8399 48.0828 55.831C47.8753 56.1948 47.646 56.509 47.4045 56.8003L50.1164 58.7674L50.1137 58.7672L49.1508 61.2065L45.6193 58.1835C45.0339 58.4378 44.3898 58.5649 43.6878 58.5649C41.8063 58.5649 40.4008 57.7604 39.4714 56.1535C38.4514 54.3758 37.9418 51.5772 37.9418 47.7625C37.9418 43.8829 38.5169 40.9469 39.6687 38.9534C40.7177 37.1299 42.1826 36.2195 44.0622 36.2195ZM32.3272 36.2512C33.6968 36.2512 34.9423 36.7889 36.064 37.8604L35.4942 39.7229C34.5344 39.1243 33.5879 38.8238 32.6548 38.8238C31.8976 38.8238 31.314 39.0912 30.9073 39.6292C30.4982 40.1625 30.2453 40.8488 30.2453 41.6853C30.2453 42.9706 30.8695 44.0855 32.0221 45.0274C32.3322 45.2747 32.736 45.6046 33.151 45.9464L33.237 46.0173C33.2514 46.0291 33.2657 46.0409 33.2801 46.0528L33.3662 46.1239C33.3806 46.1358 33.3949 46.1476 33.4093 46.1595L33.4953 46.2305C34.3678 46.9522 35.1888 47.641 35.1888 47.641C36.3413 48.8412 36.9157 50.1208 36.9157 52.2284C36.9157 54.0689 36.456 55.5799 35.5396 56.7621C34.6224 57.9391 33.3902 58.5292 31.8473 58.5292C30.4041 58.5292 29.0055 57.85 27.6507 56.5028L28.2845 54.6386C29.4504 55.4959 30.5054 55.924 31.4527 55.924C32.3413 55.924 33.0368 55.6331 33.5399 55.0583C34.0419 54.4795 34.3428 53.6721 34.3428 52.6481C34.3428 51.3595 33.7319 50.258 32.611 49.334C32.3199 49.0991 31.9471 48.7922 31.5616 48.4725L31.4757 48.4013C31.318 48.2704 31.1591 48.1381 31.0035 48.0084L30.9191 47.9379C30.1623 47.3064 29.5079 46.7546 29.5079 46.7546C28.3873 45.5522 27.8255 44.2621 27.8255 42.1364C27.8255 40.3783 28.2445 38.9573 29.0813 37.8762C29.92 36.7929 31.0021 36.2512 32.3272 36.2512ZM54.3141 36.5415V55.5743H58.9689V58.244H51.9534V36.5415H54.3141ZM61.5555 55.5826V56.0337H61.0436V58.2417H60.6524V56.0337H60.1207V55.5826H61.5555ZM62.5005 55.5826L62.9918 57.3951L63.4431 55.5826H63.9977V58.2417H63.629V56.218L63.1152 58.2417H62.8493L62.3348 56.218H62.315V58.2417H61.9661V55.5826H62.5005ZM43.8211 38.8885C41.5629 38.8885 40.4332 41.6226 40.4332 47.0874C40.4332 50.2177 40.7325 52.4878 41.3302 53.9025C41.8836 55.2119 42.7505 55.8652 43.9308 55.8652C46.1891 55.8652 47.3188 53.1098 47.3188 47.6013C47.3188 44.5148 47.0194 42.2643 46.4226 40.849C45.8684 39.5424 45.0019 38.8885 43.8211 38.8885Z" fill="#F29111"/>
<path d="M37.9022 1.34477C38.6514 -1.3557 41.2707 0.689263 42.2873 1.63275C42.5364 1.86862 42.8221 2.36726 43.1077 2.55158C43.5533 2.57736 43.9986 2.62834 44.445 2.65579C45.2822 2.94433 46.0664 3.1802 46.7261 3.7315C49.7922 6.38044 51.7881 9.07979 53.6251 13.5384C54.0174 14.483 54.2135 15.5049 54.5342 16.5268C54.9791 18.0502 55.4792 19.6492 55.9957 21.0898C56.2269 21.7727 56.4059 22.5321 56.727 23.1088C56.8523 23.3725 57.2084 23.4501 57.4213 23.6077C58.0098 24.0546 58.7228 24.3939 59.2762 24.9184C60.31 25.8639 61.3094 26.9906 62.2178 28.1439C62.5564 28.5893 62.7872 29.2196 63.1098 29.6905V29.9282C62.8234 30.0571 62.5381 30.1891 62.2525 30.2948C61.6286 30.5301 61.0759 30.4769 60.4707 30.7122C60.0967 30.8713 59.6324 31.0813 59.2401 31.1346C59.2576 31.1604 59.2762 31.1882 59.2762 31.1882C59.5071 32.1555 60.7556 32.9423 61.3265 33.5207C62.0201 34.255 62.6627 35.1457 63.1799 36.1682C63.3586 36.4292 63.5372 36.6667 63.7151 36.9269C63.8392 37.1906 63.8743 37.5316 64 37.7669V37.8463C63.8607 37.7742 63.7606 37.6368 63.6657 37.493L63.609 37.4063C63.5525 37.3199 63.4953 37.2354 63.4302 37.1655C63.0367 36.7711 62.6459 36.2995 62.2525 35.9329C61.576 35.3033 60.7914 34.9378 60.0967 34.3057C59.704 33.9387 59.3296 33.5207 58.9552 33.1009C58.6158 32.7328 58.2421 32.026 58.0289 31.5015C57.9032 31.2118 57.886 30.8712 57.7424 30.6618C57.7681 30.3117 57.9868 30.2076 58.2073 30.1221L58.2581 30.1026C58.3342 30.0735 58.4087 30.0446 58.4737 30.0064C59.4004 29.429 60.5054 29.2196 61.9321 29.2721C61.8784 28.7464 60.9868 28.0917 60.7023 27.777C60.1309 27.1729 59.5261 26.5426 58.9201 25.9929C58.599 25.7048 58.0456 25.4947 57.6899 25.2595C57.2084 24.9708 56.1385 24.6823 55.8719 24.1326C55.4188 23.266 55.0933 22.2322 54.7772 21.1879L54.6912 20.903C54.6625 20.808 54.6338 20.713 54.6051 20.6182C54.2314 19.3608 53.7675 18.0498 53.3931 16.7623C53.1973 16.1343 53.1074 15.583 52.893 14.9807C51.5923 11.284 49.6669 8.18914 47.3325 6.01251C46.5654 5.30434 45.7099 4.64883 44.7657 4.20342C44.2306 3.96642 43.5884 4.09752 43.0182 3.91544H42.643C42.3227 3.78322 42.0553 3.28513 41.8055 3.02238C41.2536 2.47276 40.7009 2.10354 40.0408 1.71136C39.8096 1.55392 39.1492 1.18751 38.9187 1.47604C38.7759 1.52871 38.7035 1.60771 38.6685 1.81781C38.5264 2.13156 38.6514 2.60386 38.7397 2.89296C39.0075 3.73112 39.3815 4.22919 39.7209 4.93737C40.0229 5.56543 40.3981 6.2736 40.6122 6.95656C41.0742 8.42446 41.2894 10.0509 41.7175 11.5188C41.8763 12.0707 42.1273 12.6987 42.3585 13.1968C42.5543 13.5918 42.9104 13.8775 43.0182 14.3778C43.233 14.9022 42.6967 16.6329 42.5726 17.1825C42.1083 19.333 42.1982 22.3222 42.7329 24.1864C42.7424 24.2189 42.7519 24.2517 42.7614 24.2847L42.7899 24.3842C42.9852 25.0668 43.1942 25.802 43.7133 25.993C43.7491 25.9409 43.7133 25.9683 43.7842 25.9409C43.9099 24.498 43.9453 23.1086 44.2843 21.9797C44.48 21.2739 44.8712 20.7749 45.1393 20.1987C45.318 20.3556 45.318 20.8289 45.4246 21.1421C45.6566 21.9545 45.9057 22.8452 46.1917 23.66C46.7787 25.338 47.4391 26.9648 48.1876 28.4326C48.4382 28.9567 48.7939 29.5339 49.1146 30.0062C49.2575 30.1889 49.4174 30.2946 49.5249 30.5299H49.5599V30.6091C49.0251 30.3198 48.6861 29.5082 48.2596 29.0344C47.4567 28.1437 46.4949 26.8061 45.9415 25.5225C45.7099 24.7858 45.4597 24.0796 45.2102 23.3464V23.2934C45.1035 23.5029 45.1393 23.7108 45.086 24.0277C44.8544 25.338 45.0327 26.8328 44.2306 27.3039C43.3214 27.8559 42.643 26.4132 42.3585 25.7578C41.449 23.5817 41.1999 19.9108 41.8413 16.9476C41.9837 16.2915 42.0031 15.5049 42.2519 14.9811C42.1982 14.5076 41.9494 14.3782 41.8055 14.088C41.556 13.5922 41.3423 13.0145 41.1469 12.4638C40.7718 11.3881 40.5048 10.1028 40.2199 8.94925C40.0945 8.47807 40.0587 8.00521 39.9338 7.55923C39.7209 6.87851 39.3282 6.19555 39.0254 5.59326C38.6152 4.72765 37.4207 3.05022 37.9022 1.34477ZM43.7487 6.48217C43.7963 6.5522 43.8539 6.61346 43.9133 6.6737L43.9851 6.74599C44.0808 6.84306 44.1733 6.94547 44.2302 7.08501C44.3201 7.26934 44.3368 7.45143 44.4446 7.63632C44.4446 8.26662 44.3201 8.6857 44.0687 8.94678C44.0687 8.94678 44.0515 8.97424 44.034 9.00001C43.8916 8.57981 43.7666 8.16186 43.6231 7.74222C43.4463 7.3758 43.1965 7.08502 43.0525 6.66651H43.0178V6.61385C43.233 6.53596 43.4463 6.48217 43.7487 6.48217H43.7487Z" fill="#00758F"/>
</svg>
