<svg width="64" height="64" viewBox="0 0 64 64" fill="none" xmlns="http://www.w3.org/2000/svg">
<g clip-path="url(#clip0_307_425)">
<path d="M58.912 49.3236C55.4324 49.2354 52.7357 49.5892 50.4739 50.561C49.8214 50.826 48.7774 50.8263 48.6904 51.6656C49.0386 52.0194 49.082 52.5937 49.3865 53.0796C49.9088 53.9631 50.8218 55.1564 51.6483 55.7751C52.5616 56.482 53.4751 57.1888 54.4318 57.8075C56.1282 58.8681 58.0421 59.4865 59.6949 60.5471C60.6521 61.1652 61.6085 61.9611 62.5654 62.6239C63.0441 62.977 63.3483 63.5516 63.9573 63.7726V63.6401C63.6528 63.2423 63.5658 62.6679 63.2615 62.2261C62.8269 61.7842 62.3916 61.3864 61.9567 60.9446C60.6952 59.2215 59.1295 57.7191 57.4331 56.482C56.0415 55.5098 52.9965 54.1843 52.4311 52.5494C52.4311 52.5494 52.3875 52.5053 52.3441 52.4612C53.301 52.3728 54.4318 52.0193 55.3454 51.7541C56.8243 51.3563 58.1726 51.4447 59.6949 51.0472C60.3907 50.8704 61.0868 50.6494 61.7826 50.4285V50.031C61 49.2354 60.4344 48.1752 59.6078 47.4239C57.3897 45.4794 54.9538 43.5798 52.4311 41.9892C51.0826 41.1055 49.3428 40.5308 47.9076 39.7799C47.3858 39.5143 46.5157 39.3821 46.2114 38.9403C45.4283 37.9681 44.9933 36.6869 44.4279 35.5379C43.167 33.1075 41.9487 30.4125 40.8613 27.8498C40.0787 26.1265 39.6001 24.4031 38.6432 22.8126C34.1632 15.3011 29.2917 10.75 21.8105 6.2871C20.2012 5.35932 18.2875 4.96154 16.2432 4.47561C15.1561 4.43126 14.0685 4.34311 12.9811 4.29876C12.2853 3.9894 11.5892 3.15005 10.9801 2.75227C8.50142 1.16142 2.10731 -2.28472 0.280468 2.26634C-0.893955 5.1384 2.02027 7.96609 3.02059 9.42443C3.76034 10.4406 4.71701 11.5893 5.23901 12.7383C5.54353 13.489 5.63029 14.2848 5.93482 15.0801C6.6309 17.0238 7.28305 19.1893 8.19661 21.0011C8.67523 21.9289 9.19695 22.901 9.80599 23.7404C10.1539 24.2263 10.7627 24.4475 10.8934 25.2428C10.2846 26.1265 10.2409 27.4521 9.89275 28.5567C8.32704 33.5496 8.93608 39.7356 11.1542 43.4029C11.85 44.5073 13.5031 46.938 15.7212 46.01C17.6785 45.2147 17.2435 42.696 17.8089 40.4868C17.9396 39.9562 17.8526 39.6031 18.1134 39.2496C18.1137 39.2937 18.1134 39.338 18.1134 39.338C18.7225 40.5752 19.3312 41.7683 19.8966 43.0054C21.2451 45.1703 23.5937 47.4239 25.551 48.9264C26.5952 49.7214 27.4215 51.0913 28.7263 51.5775V51.4447H28.6393C28.3782 51.0469 27.9869 50.8703 27.639 50.561C26.8561 49.7657 25.9859 48.7936 25.3772 47.9099C23.5506 45.4353 21.9409 42.696 20.5057 39.8681C19.8099 38.4984 19.2008 36.996 18.6354 35.6264C18.3743 35.0958 18.3743 34.3008 17.9393 34.0358C17.2869 35.0077 16.3303 35.8473 15.8516 37.0404C15.0257 38.9403 14.9384 41.2821 14.6338 43.7122C14.46 43.7566 14.5468 43.7122 14.4597 43.8007C13.0681 43.447 12.5895 41.9892 12.0675 40.7518C10.7627 37.6147 10.5452 32.5774 11.6762 28.9545C11.9807 28.0264 13.2856 25.1103 12.7636 24.2266C12.5027 23.3869 11.6326 22.901 11.1542 22.2382C10.5888 21.3986 9.9798 20.3383 9.58851 19.4103C8.54451 16.936 8.02252 14.1964 6.89176 11.7219C6.36977 10.5729 5.45648 9.38008 4.71701 8.3198C3.89077 7.12674 2.97721 6.2871 2.32477 4.87311C2.10757 4.38718 1.80277 3.5919 2.15068 3.06161C2.23773 2.70819 2.41154 2.57569 2.75972 2.48726C3.3251 2.00105 4.93447 2.61976 5.49984 2.88476C7.10922 3.54726 8.45746 4.16625 9.80597 5.09403C10.4147 5.53589 11.0672 6.37552 11.85 6.59645H12.7636C14.1555 6.90553 15.7212 6.68487 17.026 7.08238C19.3315 7.83331 21.4189 8.93822 23.2894 10.1313C28.9875 13.7986 33.6846 19.0127 36.86 25.2428C37.382 26.2587 37.5992 27.1871 38.0778 28.2473C38.9913 30.4125 40.1221 32.6218 41.0354 34.7427C41.9487 36.8192 42.8186 38.9403 44.1234 40.6636C44.7761 41.5911 47.3856 42.0773 48.56 42.5636C49.4299 42.9611 50.7784 43.3148 51.5612 43.8007C53.0399 44.7282 54.5188 45.789 55.9107 46.8052C56.6068 47.3352 58.7813 48.4402 58.912 49.3236L58.912 49.3236Z" fill="#00546B"/>
<path d="M14.5466 10.9263C13.8071 10.9263 13.2854 11.015 12.7634 11.1475C12.7634 11.1473 12.7634 11.1918 12.7634 11.2359H12.8505C13.1987 11.9428 13.8071 12.429 14.2421 13.0474C14.5903 13.7543 14.8945 14.4614 15.2427 15.1685C15.2861 15.1242 15.3295 15.0801 15.3295 15.0801C15.9388 14.638 16.243 13.9311 16.243 12.8708C15.9819 12.5615 15.9385 12.2521 15.721 11.9428C15.4602 11.5006 14.8945 11.28 14.5466 10.9263Z" fill="#00546B"/>
</g>
<defs>
<clipPath id="clip0_307_425">
<rect width="64" height="64" fill="white"/>
</clipPath>
</defs>
</svg>
