<svg width="64" height="64" viewBox="0 0 64 64" fill="none" xmlns="http://www.w3.org/2000/svg">
<g clip-path="url(#clip0_317_426)">
<mask id="mask0_317_426" style="mask-type:alpha" maskUnits="userSpaceOnUse" x="0" y="0" width="64" height="64">
<path d="M32 64C49.6731 64 64 49.6731 64 32C64 14.3269 49.6731 0 32 0C14.3269 0 0 14.3269 0 32C0 49.6731 14.3269 64 32 64Z" fill="white"/>
</mask>
<g mask="url(#mask0_317_426)">
<path d="M32 64C49.6731 64 64 49.6731 64 32C64 14.3269 49.6731 0 32 0C14.3269 0 0 14.3269 0 32C0 49.6731 14.3269 64 32 64Z" fill="black"/>
<path d="M53.1584 56.0071L24.5838 19.2H19.2V44.7893H23.507V24.6697L49.7774 58.6115C50.9628 57.8183 52.092 56.9475 53.1584 56.0071Z" fill="url(#paint0_linear_317_426)"/>
<path d="M45.1556 19.2H40.8889V44.7999H45.1556V19.2Z" fill="url(#paint1_linear_317_426)"/>
</g>
</g>
<defs>
<linearGradient id="paint0_linear_317_426" x1="38.0919" y1="41.4222" x2="49.4322" y2="55.4777" gradientUnits="userSpaceOnUse">
<stop stop-color="white"/>
<stop offset="1" stop-color="white" stop-opacity="0"/>
</linearGradient>
<linearGradient id="paint1_linear_317_426" x1="43.0222" y1="19.2" x2="42.9508" y2="37.9997" gradientUnits="userSpaceOnUse">
<stop stop-color="white"/>
<stop offset="1" stop-color="white" stop-opacity="0"/>
</linearGradient>
<clipPath id="clip0_317_426">
<rect width="64" height="64" fill="white"/>
</clipPath>
</defs>
</svg>
