<svg width="64" height="64" viewBox="0 0 64 64" fill="none" xmlns="http://www.w3.org/2000/svg">
<g clip-path="url(#clip0_302_422)">
<path d="M32 63.8812C31.0062 63.8812 30.0787 63.6465 29.2174 63.2357L20.4058 58.5994C19.0807 57.9538 19.7433 57.7191 20.1408 57.6017C21.9296 57.0735 22.2609 56.9561 24.1159 56.0171C24.3147 55.8998 24.5797 55.9584 24.7785 56.0758L31.5362 59.6558C31.8012 59.7731 32.1325 59.7731 32.3313 59.6558L58.766 46.099C59.0311 45.9816 59.1636 45.7468 59.1636 45.4534V18.3985C59.1636 18.1051 59.0311 17.8703 58.766 17.7529L32.3313 4.25484C32.0663 4.13746 31.735 4.13746 31.5362 4.25484L5.10145 17.7529C4.83644 17.8703 4.70393 18.1638 4.70393 18.3985V45.4534C4.70393 45.6882 4.83644 45.9816 5.10145 46.099L12.323 49.7963C16.2319 51.5569 18.6832 49.5028 18.6832 47.4488V20.746C18.6832 20.3939 19.0145 20.0418 19.4783 20.0418H22.8571C23.2547 20.0418 23.6522 20.3352 23.6522 20.746V47.4488C23.6522 52.0851 20.8033 54.7847 15.8344 54.7847C14.3106 54.7847 13.118 54.7847 9.73913 53.3175L2.78261 49.7963C1.06004 48.916 0 47.2727 0 45.5121V18.4572C0 16.6966 1.06004 15.0533 2.78261 14.173L29.2174 0.616218C30.8737 -0.205406 33.1263 -0.205406 34.7826 0.616218L61.2174 14.173C62.94 15.0533 64 16.6966 64 18.4572V45.5121C64 47.2727 62.94 48.916 61.2174 49.7963L34.7826 63.3531C33.9213 63.7052 32.9275 63.8812 32 63.8812ZM40.1491 45.2773C28.5549 45.2773 26.1698 40.5823 26.1698 36.5916C26.1698 36.2395 26.501 35.8874 26.9648 35.8874H30.4099C30.8075 35.8874 31.1387 36.1221 31.1387 36.4742C31.6687 39.5847 33.1925 41.1105 40.2153 41.1105C45.7805 41.1105 48.1656 39.9955 48.1656 37.3545C48.1656 35.8287 47.5031 34.7136 38.824 33.9507C31.6025 33.3051 27.0973 31.8966 27.0973 26.7908C27.0973 22.0371 31.6025 19.2201 39.1553 19.2201C47.6356 19.2201 51.8095 21.8024 52.3395 27.4364C52.3395 27.6124 52.2733 27.7885 52.1408 27.9646C52.0083 28.0819 51.8095 28.1993 51.6108 28.1993H48.1656C47.8344 28.1993 47.5031 27.9646 47.4369 27.6711C46.6418 24.4433 44.588 23.3869 39.1553 23.3869C33.06 23.3869 32.3313 25.2649 32.3313 26.6734C32.3313 28.3754 33.1925 28.9036 41.4079 29.8425C49.5569 30.7815 53.3996 32.1314 53.3996 37.1785C53.3333 42.343 48.5631 45.2773 40.1491 45.2773Z" fill="#539E43"/>
</g>
<defs>
<clipPath id="clip0_302_422">
<rect width="64" height="64" fill="white"/>
</clipPath>
</defs>
</svg>
