<svg width="64" height="64" viewBox="0 0 64 64" fill="none" xmlns="http://www.w3.org/2000/svg">
<path d="M32 63.8104C49.6731 63.8104 64 49.5259 64 31.9052C64 14.2844 49.6731 0 32 0C14.3269 0 0 14.2844 0 31.9052C0 49.5259 14.3269 63.8104 32 63.8104Z" fill="url(#paint0_radial_161_501)"/>
<path d="M32 61.44C48.9828 61.44 62.75 48.2168 62.75 31.9052C62.75 15.5935 48.9828 2.37036 32 2.37036C15.0172 2.37036 1.25 15.5935 1.25 31.9052C1.25 48.2168 15.0172 61.44 32 61.44Z" fill="#6181B6"/>
<path d="M38.225 41.4815L39.75 26.5956C40.1 23.2297 39.8 20.7171 38.9 19.1526C38.025 17.6356 36.525 16.8771 34.325 16.8771H31.675L32.425 9.48153C32.45 9.19708 32.425 8.91264 32.325 8.6756C32.225 8.43856 32.1 8.34375 31.95 8.34375H28.3C28.05 8.34375 27.85 8.6756 27.8 9.10227L26.175 24.8889C26.025 23.0875 25.675 21.5704 25.075 20.3378C24 18.0149 22.325 16.8297 20.05 16.8297H13.025C12.775 16.8297 12.575 17.1615 12.525 17.5882L9.24998 49.6356C9.22498 49.92 9.24998 50.2045 9.34998 50.4415C9.44998 50.6786 9.57498 50.7734 9.72498 50.7734H13.4C13.65 50.7734 13.85 50.4415 13.9 50.0149L14.7 42.2875H17.425C18.85 42.2875 20.075 42.003 21 41.4341C21.975 40.8178 22.85 39.8223 23.625 38.4475C24.25 37.3571 24.775 36.1245 25.175 34.7971L24.525 41.1971C24.5 41.4815 24.525 41.766 24.625 42.003C24.725 42.24 24.85 42.3349 25 42.3349H28.65C28.9 42.3349 29.1 42.003 29.15 41.5763L30.95 24.0356H33.45C34.525 24.0356 34.825 24.4149 34.925 24.6045C35 24.7467 35.15 25.3156 34.975 27.0697L33.525 41.2445C33.5 41.5289 33.525 41.8134 33.625 42.0504C33.725 42.2875 33.85 42.3823 34 42.3823H37.75C37.975 42.24 38.175 41.9082 38.225 41.4815ZM21.325 29.1556C21.1 31.3838 20.675 32.9956 20.05 33.8963C19.425 34.7971 18.4 35.2712 17.05 35.2712H15.425L16.6 23.7986H18.7C20.25 23.7986 20.875 24.4149 21.125 24.9363C21.45 25.6949 21.525 27.1645 21.325 29.1556Z" fill="white"/>
<path d="M53.825 20.3377C52.75 18.0148 51.075 16.8296 48.8 16.8296H41.725C41.475 16.8296 41.275 17.1614 41.225 17.5881L37.95 49.5881C37.925 49.8726 37.95 50.157 38.05 50.394C38.15 50.6311 38.275 50.7259 38.425 50.7259H42.1C42.35 50.7259 42.55 50.394 42.6 49.9674L43.4 42.24H46.125C47.55 42.24 48.775 41.9555 49.7 41.3866C50.675 40.7703 51.55 39.7748 52.325 38.4C52.975 37.2622 53.525 35.9822 53.925 34.6074C54.325 33.2326 54.625 31.7155 54.8 30.0563C55.225 25.9318 54.9 22.7081 53.825 20.3377ZM50 29.1555C49.775 31.3837 49.35 32.9955 48.725 33.8963C48.1 34.797 47.075 35.2711 45.725 35.2711H44.1L45.275 23.7985H47.375C48.925 23.7985 49.55 24.4148 49.8 24.9363C50.15 25.6948 50.225 27.1644 50 29.1555Z" fill="white"/>
<path d="M18.7 22.8502C20.1 22.8502 21.025 23.3243 21.5 24.3198C21.975 25.3154 22.075 26.9746 21.825 29.345C21.575 31.8102 21.075 33.6117 20.35 34.6546C19.625 35.6976 18.525 36.2191 17.05 36.2191H14.825L16.2 22.8502H18.7ZM9.75 49.7776H13.425L14.3 41.2917H17.45C18.85 41.2917 19.975 41.0072 20.875 40.4383C21.775 39.8694 22.575 38.9687 23.325 37.6413C23.95 36.5509 24.45 35.3657 24.825 34.0857C25.2 32.8057 25.475 31.3835 25.625 29.8191C26.025 26.0265 25.725 23.0872 24.75 20.9539C23.775 18.8206 22.225 17.7776 20.1 17.7776H13.025L9.75 49.7776Z" fill="#000004"/>
<path d="M28.325 9.29175H31.975L31.1 17.7777H34.35C36.4 17.7777 37.8 18.4414 38.575 19.8162C39.35 21.191 39.575 23.3717 39.275 26.4058L37.75 41.2917H34.05L35.5 27.1169C35.675 25.5051 35.6 24.4147 35.325 23.8458C35.05 23.2769 34.425 22.9451 33.5 22.9451H30.575L28.7 41.2917H25.05L28.325 9.29175Z" fill="#000004"/>
<path d="M47.375 22.8502C48.775 22.8502 49.7 23.3243 50.175 24.3198C50.65 25.3154 50.75 26.9746 50.5 29.345C50.25 31.8102 49.75 33.6117 49.025 34.6546C48.3 35.6976 47.2 36.2191 45.725 36.2191H43.5L44.875 22.8502H47.375ZM38.425 49.7776H42.1L42.975 41.2917H46.125C47.525 41.2917 48.65 41.0072 49.55 40.4383C50.45 39.8694 51.25 38.9687 52 37.6413C52.625 36.5509 53.125 35.3657 53.5 34.0857C53.875 32.8057 54.15 31.3835 54.3 29.8191C54.7 26.0265 54.4 23.0872 53.425 20.9539C52.45 18.8206 50.9 17.7776 48.775 17.7776H41.7L38.425 49.7776Z" fill="#000004"/>
<defs>
<radialGradient id="paint0_radial_161_501" cx="0" cy="0" r="1" gradientUnits="userSpaceOnUse" gradientTransform="translate(19.2129 11.2202) scale(42.0238 79.6896)">
<stop stop-color="white"/>
<stop offset="0.5" stop-color="#4C6B97"/>
<stop offset="1" stop-color="#231F20"/>
</radialGradient>
</defs>
</svg>
