<svg width="64" height="64" viewBox="0 0 64 64" fill="none" xmlns="http://www.w3.org/2000/svg">
<path d="M54.7533 20.4026V43.45L32.1093 55.0366L31.9045 55.1976V63.8115L32.1093 63.9784L64 48.0467V15.9317L63.6988 15.8679L54.708 20.2152L54.7533 20.4026Z" fill="#2F406A"/>
<path d="M9.3925 43.6388L32.1092 55.0366V63.9785L0 47.9839V15.9947L0.3295 15.9517L9.29425 20.4593L9.3925 20.7175V43.6388Z" fill="#2379BD"/>
<path d="M9.3925 20.7174L0 15.9946L32.0365 0L64 15.9317L54.7533 20.4026L32.0365 9.19373L9.3925 20.7174Z" fill="#03AFEF"/>
<path d="M31.7195 41.0028L31.4735 40.7857V32.1315L31.7195 32.0216L31.7793 31.8082L40.358 27.4802L40.6205 27.531V36.4482L31.7195 41.0028Z" fill="#2F406A"/>
<path d="M22.67 36.7262V27.4671L22.9188 27.4565L31.6453 31.8488L31.7195 32.0217V41.0029L22.67 36.7262Z" fill="#2379BD"/>
<path d="M31.571 22.9121L22.67 27.4669L31.7195 32.0215L40.6205 27.5309L31.571 22.9121Z" fill="#03AFEF"/>
<path d="M20.6425 46.6483L20.3967 46.4312V37.7768L20.6425 37.6671L20.7025 37.4537L29.281 33.1257L29.5435 33.1765V42.0935L20.6425 46.6483Z" fill="#2F406A"/>
<path d="M11.5933 42.3714V33.1122L11.8418 33.1016L20.5683 37.494L20.6425 37.667V46.6482L11.5933 42.3714Z" fill="#2379BD"/>
<path d="M20.4943 28.5576L11.5933 33.1122L20.6425 37.667L29.5435 33.1764L20.4943 28.5576Z" fill="#03AFEF"/>
<path d="M43.5875 46.8619L43.3415 46.6449V37.9904L43.5875 37.8808L43.6472 37.6674L52.226 33.3394L52.4885 33.3902V42.3071L43.5875 46.8619Z" fill="#2F406A"/>
<path d="M34.538 42.5853V33.326L34.7867 33.3154L43.5132 37.7079L43.5875 37.8808V46.862L34.538 42.5853Z" fill="#2379BD"/>
<path d="M43.439 28.7715L34.538 33.3261L43.5875 37.8809L52.4885 33.3903L43.439 28.7715Z" fill="#03AFEF"/>
<path d="M32.5105 52.5075L32.2647 52.2904V43.6359L32.5105 43.5263L32.5705 43.3126L41.1492 38.9849L41.4115 39.0357V47.9527L32.5105 52.5075Z" fill="#2F406A"/>
<path d="M23.4612 48.2308V38.9715L23.7097 38.9609L32.4365 43.3532L32.5105 43.5263V52.5075L23.4612 48.2308Z" fill="#2379BD"/>
<path d="M32.3622 34.4167L23.4612 38.9716L32.5105 43.5264L41.4115 39.0358L32.3622 34.4167Z" fill="#03AFEF"/>
<path d="M31.7195 28.7286L31.4735 28.5114V19.8571L31.7195 19.7475L31.7793 19.5338L40.358 15.2061L40.6205 15.2569V24.1738L31.7195 28.7286Z" fill="#2F406A"/>
<path d="M22.67 24.452V15.1927L22.9188 15.1821L31.6453 19.5743L31.7195 19.7475V28.7287L22.67 24.452Z" fill="#2379BD"/>
<path d="M31.571 10.6379L22.67 15.1927L31.7195 19.7476L40.6205 15.257L31.571 10.6379Z" fill="#03AFEF"/>
<path d="M20.6425 34.3739L20.3967 34.1568V25.5026L20.6425 25.3927L20.7025 25.1793L29.281 20.8513L29.5435 20.9021V29.8193L20.6425 34.3739Z" fill="#2F406A"/>
<path d="M11.5933 30.097V20.838L11.8418 20.8274L20.5683 25.2196L20.6425 25.3926V34.3738L11.5933 30.097Z" fill="#2379BD"/>
<path d="M20.4943 16.2832L11.5933 20.838L20.6425 25.3926L29.5435 20.902L20.4943 16.2832Z" fill="#03AFEF"/>
<path d="M43.5875 34.5878L43.3415 34.3707V25.7164L43.5875 25.6066L43.6472 25.3932L52.226 21.0652L52.4885 21.116V30.0332L43.5875 34.5878Z" fill="#2F406A"/>
<path d="M34.538 30.3109V21.0519L34.7867 21.0413L43.5132 25.4335L43.5875 25.6064V34.5876L34.538 30.3109Z" fill="#2379BD"/>
<path d="M43.439 16.4971L34.538 21.0519L43.5875 25.6065L52.4885 21.1159L43.439 16.4971Z" fill="#03AFEF"/>
<path d="M32.5105 40.233L32.2647 40.016V31.3615L32.5105 31.2519L32.5705 31.0384L41.1492 26.7104L41.4115 26.7613V35.6782L32.5105 40.233Z" fill="#2F406A"/>
<path d="M23.4612 35.9564V26.6971L23.7097 26.6865L32.4365 31.079L32.5105 31.2519V40.2331L23.4612 35.9564Z" fill="#2379BD"/>
<path d="M32.3622 22.1423L23.4612 26.6971L32.5105 31.252L41.4115 26.7614L32.3622 22.1423Z" fill="#03AFEF"/>
</svg>
