<svg width="64" height="64" viewBox="0 0 64 64" fill="none" xmlns="http://www.w3.org/2000/svg">
<path d="M24.1116 1.84549C32.1786 -0.223352 41.0939 0.982229 48.2084 5.37293C57.1684 10.7311 63.0177 20.8669 63.1665 31.3004C63.4939 41.838 58.0019 52.2864 49.1758 58.0166C39.3526 64.625 25.7637 64.878 15.7321 58.5971C5.50697 52.4948 -0.4614 40.186 1.07162 28.3683C2.30697 15.8808 11.9516 4.86688 24.1116 1.84549Z" fill="#010101"/>
<path d="M22.8763 6.9505C38.1172 0.848174 56.8112 12.1152 58.3888 28.4575C60.8446 43.1626 48.64 58.1058 33.7414 58.5375C19.5721 59.9514 5.87906 47.9403 5.4772 33.7114C4.42046 22.1914 12.0112 10.7607 22.8763 6.9505Z" fill="white"/>
<path d="M24.4093 30.4221C31.2409 24.8408 37.9237 19.0659 44.9042 13.6482C41.2428 19.2742 37.4772 24.8259 33.8158 30.4519C30.6753 30.4668 27.5349 30.4668 24.4093 30.4221Z" fill="#010101"/>
<path d="M30.1842 33.533C33.3395 33.533 36.48 33.533 39.6205 33.5776C32.7442 39.1292 26.0912 44.9488 19.0958 50.3516C22.7572 44.7255 26.5228 39.159 30.1842 33.533Z" fill="#010101"/>
</svg>
